<svg width="89" height="89" viewBox="0 0 89 89" fill="none" xmlns="http://www.w3.org/2000/svg">
<path d="M72.1206 59.8448H75.1896C78.5792 59.8448 81.3275 56.4095 81.3275 52.1724C81.3275 47.9354 78.5792 44.5 75.1896 44.5H72.1206V59.8448Z" fill="#CCAC9B"/>
<path d="M16.8793 59.8448H13.8103C10.4206 59.8448 7.67236 56.4095 7.67236 52.1724C7.67236 47.9354 10.4206 44.5 13.8103 44.5H16.8793V59.8448Z" fill="#CCAC9B"/>
<path d="M13.8105 33.7588H75.1899V58.3105C75.1899 75.2602 61.4499 89.0002 44.5002 89.0002C27.5505 89.0002 13.8105 75.2602 13.8105 58.3105V33.7588Z" fill="#F5D7CA"/>
<path d="M75.1899 33.7585C75.1899 30.3689 61.4499 27.6206 44.5002 27.6206C27.5505 27.6206 13.8105 30.3689 13.8105 33.7585C13.8105 37.1482 27.5505 39.8965 44.5002 39.8965C61.4499 39.8965 75.1899 37.1482 75.1899 33.7585Z" fill="#B9A095"/>
<path d="M41.4312 69.0522C40.9592 69.0522 40.5126 68.8342 40.2219 68.4625C39.9312 68.0901 39.8285 67.6046 39.9424 67.1461L43.0114 54.8702C43.1343 54.3278 43.5404 53.8932 44.0746 53.7358C44.6088 53.5778 45.1857 53.7224 45.5836 54.112C45.9807 54.5016 46.1358 55.0763 45.9889 55.6135L43.5411 65.4093L47.196 64.4885C48.0157 64.2899 48.8421 64.7889 49.0467 65.6071C49.252 66.4245 48.7582 67.2547 47.9423 67.4653L41.8043 68.9997C41.6822 69.0327 41.5571 69.0499 41.4312 69.0522Z" fill="#A8887A"/>
<path d="M30.6897 59.8451C24.9542 59.8451 23.1387 52.8433 23.063 52.5443C22.857 51.7217 23.356 50.8885 24.1779 50.6817C24.9999 50.4756 25.8338 50.9746 26.0406 51.7966C26.0526 51.846 27.351 56.7762 30.6897 56.7762C34.0284 56.7762 35.3269 51.846 35.3389 51.7966C35.5457 50.9746 36.3796 50.4756 37.2015 50.6817C38.0235 50.8885 38.5225 51.7217 38.3164 52.5443C38.2408 52.8433 36.4253 59.8451 30.6897 59.8451Z" fill="#A8887A"/>
<path d="M58.3103 59.8451C52.5748 59.8451 50.7593 52.8433 50.6836 52.5443C50.4776 51.7217 50.9766 50.8885 51.7985 50.6817C52.6205 50.4756 53.4544 50.9746 53.6612 51.7966C53.6732 51.846 54.9716 56.7762 58.3103 56.7762C61.649 56.7762 62.9475 51.846 62.9595 51.7966C63.1663 50.9746 64.0002 50.4756 64.8222 50.6817C65.6441 50.8885 66.1431 51.7217 65.9371 52.5443C65.8614 52.8433 64.0459 59.8451 58.3103 59.8451Z" fill="#A8887A"/>
<path d="M30.6898 67.517C30.6898 70.0593 28.6286 72.1205 26.0864 72.1205C23.5441 72.1205 21.4829 70.0593 21.4829 67.517C21.4829 64.9748 23.5441 62.9136 26.0864 62.9136C28.6286 62.9136 30.6898 64.9748 30.6898 67.517Z" fill="#FDB5A6"/>
<path d="M67.5174 67.517C67.5174 70.0593 65.4562 72.1205 62.914 72.1205C60.3718 72.1205 58.3105 70.0593 58.3105 67.517C58.3105 64.9748 60.3718 62.9136 62.914 62.9136C65.4562 62.9136 67.5174 64.9748 67.5174 67.517Z" fill="#FDB5A6"/>
<path d="M47.5691 12.7269V0H41.4311V12.7269C36.3204 14.2509 33.1016 19.2942 33.8711 24.5712C34.6414 29.849 39.1669 33.7624 44.5001 33.7624C49.8333 33.7624 54.3588 29.849 55.1291 24.5712C55.8986 19.2942 52.6798 14.2509 47.5691 12.7269Z" fill="#D0DAD9"/>
<path d="M34.8146 18.4355C32.9272 22.4179 33.666 27.1494 36.678 30.366C39.69 33.5826 44.3632 34.6308 48.4608 33.0086C52.5585 31.3865 55.2476 27.4244 55.2416 23.0173C55.2356 22.5033 55.1929 21.9908 55.1143 21.4828C46.3742 21.4521 43.1621 18.6596 34.8146 18.4355Z" fill="#009FE3" fill-opacity="0.4"/>
<path d="M59.845 3.06897C59.845 4.76379 58.4708 6.13793 56.776 6.13793C55.0812 6.13793 53.707 4.76379 53.707 3.06897C53.707 1.37414 55.0812 0 56.776 0C58.4708 0 59.845 1.37414 59.845 3.06897Z" fill="#009FE3" fill-opacity="0.4"/>
<path d="M30.6897 12.276C30.6897 13.9708 29.3155 15.345 27.6207 15.345C25.9259 15.345 24.5518 13.9708 24.5518 12.276C24.5518 10.5812 25.9259 9.20703 27.6207 9.20703C29.3155 9.20703 30.6897 10.5812 30.6897 12.276Z" fill="#009FE3" fill-opacity="0.4"/>
</svg>
