<svg width="70" height="70" viewBox="0 0 70 70" fill="none" xmlns="http://www.w3.org/2000/svg">
<g clip-path="url(#clip0)">
<path d="M68.4629 35.0828C68.458 37.1527 68.2694 39.1794 67.9124 41.1475C67.8832 41.3086 67.2836 41.4678 67.2521 41.628C67.131 42.2452 66.9932 42.8565 66.8395 43.4613C66.7987 43.6214 67.3263 43.7825 67.2833 43.9418C66.7265 46.0048 65.9816 47.9908 65.0684 49.8799C64.9699 50.0838 64.2314 50.203 64.1289 50.4045C63.8281 50.9963 63.5105 51.5784 63.1769 52.1498C63.0907 52.2975 63.6413 52.5281 63.553 52.6744C58.6804 60.7406 50.5733 66.6337 41.0285 68.5564C40.0749 67.6208 38.7924 67.0966 37.4564 67.0966H22.3061C9.28038 62.2553 0 49.7113 0 34.9998C0 27.8341 2.20172 21.1827 5.96551 15.6852C6.00631 15.6255 6.30922 15.7232 6.35044 15.6638C6.79727 15.0199 7.26561 14.392 7.75449 13.7813C7.80186 13.7222 7.58739 13.5061 7.63517 13.4473C13.9113 5.71204 23.494 0.768311 34.2314 0.768311C53.1229 0.768311 68.5078 16.1915 68.4629 35.0828Z" fill="#453D83" fill-opacity="0.9"/>
<path d="M37.8644 49.8802H65.0685C64.6058 50.8373 64.0999 51.7696 63.5533 52.6746H37.8644C37.0927 52.6746 36.4672 52.0491 36.4672 51.2774C36.4672 50.5057 37.0927 49.8802 37.8644 49.8802ZM47.9243 41.1477C47.1526 41.1477 46.5271 41.7732 46.5271 42.5449C46.5271 43.3165 47.1526 43.9421 47.9243 43.9421H67.2834C67.5308 43.0252 67.7411 42.0933 67.9125 41.1477H47.9243ZM50.8092 18.7924C50.8092 26.5089 44.5536 32.7644 36.8372 32.7644C29.1207 32.7644 22.8651 26.5089 22.8651 18.7924C22.8651 11.0759 29.1207 4.82031 36.8372 4.82031C44.5536 4.82031 50.8092 11.0759 50.8092 18.7924ZM12.4352 27.1756C13.2069 27.1756 13.8325 26.5501 13.8325 25.7784C13.8325 25.0067 13.2069 24.3812 12.4352 24.3812C11.6636 24.3812 11.038 25.0067 11.038 25.7784C11.038 26.5501 11.6636 27.1756 12.4352 27.1756ZM12.4352 15.998C13.2069 15.998 13.8325 15.3724 13.8325 14.6008C13.8325 13.8291 13.2069 13.2035 12.4352 13.2035C11.6636 13.2035 11.038 13.8291 11.038 14.6008C11.038 15.3724 11.6636 15.998 12.4352 15.998ZM18.0241 27.1756C18.7957 27.1756 19.4213 26.5501 19.4213 25.7784C19.4213 25.0067 18.7957 24.3812 18.0241 24.3812C17.2524 24.3812 16.6269 25.0067 16.6269 25.7784C16.6269 26.5501 17.2524 27.1756 18.0241 27.1756ZM12.4352 21.5868C13.2069 21.5868 13.8325 20.9612 13.8325 20.1896C13.8325 19.4179 13.2069 18.7924 12.4352 18.7924C11.6636 18.7924 11.038 19.4179 11.038 20.1896C11.038 20.9612 11.6636 21.5868 12.4352 21.5868ZM6.84642 15.998C7.6181 15.998 8.24363 15.3724 8.24363 14.6008C8.24363 14.1218 8.00261 13.6993 7.63529 13.4475C7.0493 14.1697 6.49223 14.9162 5.96563 15.6853C6.20595 15.8807 6.51249 15.998 6.84642 15.998ZM6.84642 21.5868C7.6181 21.5868 8.24363 20.9612 8.24363 20.1896C8.24363 19.4179 7.6181 18.7924 6.84642 18.7924C6.07475 18.7924 5.44922 19.4179 5.44922 20.1896C5.44922 20.9612 6.07475 21.5868 6.84642 21.5868ZM6.84642 27.1756C7.6181 27.1756 8.24363 26.5501 8.24363 25.7784C8.24363 25.0067 7.6181 24.3812 6.84642 24.3812C6.07475 24.3812 5.44922 25.0067 5.44922 25.7784C5.44922 26.5501 6.07475 27.1756 6.84642 27.1756ZM18.0241 21.5868C18.7957 21.5868 19.4213 20.9612 19.4213 20.1896C19.4213 19.4179 18.7957 18.7924 18.0241 18.7924C17.2524 18.7924 16.6269 19.4179 16.6269 20.1896C16.6269 20.9612 17.2524 21.5868 18.0241 21.5868ZM18.0241 13.2035C17.2524 13.2035 16.6269 13.8291 16.6269 14.6008C16.6269 15.3724 17.2524 15.998 18.0241 15.998C18.7957 15.998 19.4213 15.3724 19.4213 14.6008C19.4213 13.8291 18.7957 13.2035 18.0241 13.2035Z" fill="#5F55AF"/>
<path d="M43.8231 18.7922C43.8231 22.6504 40.6953 25.7782 36.8371 25.7782C32.9789 25.7782 29.8511 22.6504 29.8511 18.7922C29.8511 14.9339 32.9789 11.8062 36.8371 11.8062C40.6953 11.8062 43.8231 14.9339 43.8231 18.7922ZM59.9402 39.401C59.1685 39.401 58.543 40.0265 58.543 40.7982V44.2912C58.543 45.0628 59.1685 45.6884 59.9402 45.6884C60.7119 45.6884 61.3374 45.0628 61.3374 44.2912V40.7982C61.3374 40.0265 60.7119 39.401 59.9402 39.401ZM51.5569 48.1335C50.7853 48.1335 50.1597 48.759 50.1597 49.5307V53.0237C50.1597 53.7954 50.7853 54.4209 51.5569 54.4209C52.3286 54.4209 52.9541 53.7954 52.9541 53.0237V49.5307C52.9541 48.759 52.3286 48.1335 51.5569 48.1335Z" fill="#76B6FA"/>
<path d="M53.4298 33.7869L49.6619 40.6209C48.9572 41.8992 48.4001 43.2535 48.0013 44.6577C47.1004 47.8307 45.3985 50.7196 43.0607 53.0464C42.6975 53.4077 42.453 53.6536 42.4357 53.6769C41.512 55.8497 41.0289 58.197 41.0289 60.5816V68.5563C38.832 68.999 36.5589 69.2312 34.2317 69.2312C30.0377 69.2312 26.0198 68.4768 22.3063 67.0967V61.4049C22.3063 58.2062 21.437 55.0678 19.7913 52.325C18.1457 49.5823 17.2764 46.4437 17.2764 43.2451V34.1615L34.0428 32.7643V18.7922C34.0428 17.215 35.3494 15.9432 36.9391 15.9996C38.4534 16.0534 39.6316 17.344 39.6316 18.8591V41.527C39.6316 41.9959 39.8553 42.4367 40.2338 42.7135C40.9491 43.2367 41.9614 43.0128 42.3892 42.2368L47.1863 33.5357C48.3047 31.5073 50.8564 30.7703 52.8841 31.8906C53.5579 32.2629 53.8014 33.1127 53.4298 33.7869Z" fill="#FFBEAA"/>
<path d="M22.9608 50.8893C24.8572 54.263 25.8011 58.0887 25.6916 61.9574L25.5172 68.1122C24.4246 67.8255 23.3534 67.486 22.3063 67.0969V61.4051C22.3063 58.2065 21.437 55.0681 19.7913 52.3252C18.1457 49.5825 17.2764 46.4439 17.2764 43.2453V34.1615L20.3976 33.9014L20.2299 39.8212C20.1204 43.6899 21.0643 47.5156 22.9608 50.8893ZM38.6329 43.942C32.6623 43.942 27.8046 48.7996 27.8046 54.7703C27.8046 55.349 28.2738 55.8182 28.8525 55.8182C29.4312 55.8182 29.9004 55.349 29.9004 54.7703C29.9004 49.9553 33.8179 46.0378 38.6329 46.0378C39.2117 46.0378 39.6808 45.5686 39.6808 44.9899C39.6808 44.4112 39.2117 43.942 38.6329 43.942Z" fill="#FAA68E"/>
<path d="M34.0428 32.7644V43.942C34.0428 45.4854 32.7918 46.7364 31.2484 46.7364C29.7051 46.7364 28.454 45.4854 28.454 43.942V41.1476C28.454 42.691 27.203 43.942 25.6596 43.942C24.1162 43.942 22.8652 42.691 22.8652 41.1476V38.3532C22.8652 39.8966 21.6141 41.1476 20.0708 41.1476C18.5274 41.1476 17.2764 39.8966 17.2764 38.3532V32.7644C17.2764 31.221 18.5274 29.97 20.0708 29.97C21.6141 29.97 22.8652 31.221 22.8652 32.7644C22.8652 31.221 24.1162 29.97 25.6596 29.97C27.203 29.97 28.454 31.221 28.454 32.7644C28.454 31.221 29.7051 29.97 31.2484 29.97C32.7918 29.97 34.0428 31.221 34.0428 32.7644Z" fill="#FFCDBE"/>
<path d="M31.2484 46.7364C29.7051 46.7364 28.454 45.4854 28.454 43.942V32.7644C28.454 31.221 29.7051 29.97 31.2484 29.97C31.7574 29.97 32.2346 30.1061 32.6456 30.3439C31.8104 30.827 31.2484 31.73 31.2484 32.7644V46.7364ZM25.6596 32.7644C25.6596 31.73 26.2216 30.827 27.0568 30.3439C26.6457 30.1061 26.1686 29.97 25.6596 29.97C24.1162 29.97 22.8652 31.221 22.8652 32.7644V41.1476C22.8652 42.691 24.1162 43.942 25.6596 43.942V32.7644ZM20.0708 40.2394V32.7644C20.0708 31.73 20.6327 30.827 21.468 30.3439C21.0569 30.1061 20.5798 29.97 20.0708 29.97C18.5274 29.97 17.2764 31.221 17.2764 32.7644V38.3532C17.2764 39.8966 18.5274 41.1476 20.0708 41.1476C20.1209 41.1476 20.1708 41.1462 20.2204 41.1437C20.1235 40.8601 20.0708 40.5559 20.0708 40.2394Z" fill="#FFBEAA"/>
<path d="M21.4677 38.3533V39.7505C21.4677 40.5221 20.8422 41.1477 20.0705 41.1477C19.2989 41.1477 18.6733 40.5221 18.6733 39.7505V38.3533C18.6733 37.5816 19.2989 36.9561 20.0705 36.9561C20.8422 36.9561 21.4677 37.5816 21.4677 38.3533ZM25.6594 39.7505C24.8877 39.7505 24.2622 40.376 24.2622 41.1477V42.5449C24.2622 43.3166 24.8877 43.9421 25.6594 43.9421C26.431 43.9421 27.0566 43.3166 27.0566 42.5449V41.1477C27.0566 40.376 26.431 39.7505 25.6594 39.7505ZM31.2482 42.5449C30.4765 42.5449 29.851 43.1704 29.851 43.9421V45.3393C29.851 46.111 30.4765 46.7365 31.2482 46.7365C32.0199 46.7365 32.6454 46.111 32.6454 45.3393V43.9421C32.6454 43.1704 32.0199 42.5449 31.2482 42.5449Z" fill="#FFEEE5"/>
<path d="M39.6313 18.7922C39.6313 20.3356 38.3802 21.5866 36.8369 21.5866C35.2935 21.5866 34.0425 20.3356 34.0425 18.7922C34.0425 17.2489 35.2935 15.9978 36.8369 15.9978C38.3802 15.9978 39.6313 17.2489 39.6313 18.7922Z" fill="#E9F3FE"/>
<path d="M69.9999 15.9978C69.9999 16.7695 69.3744 17.395 68.6027 17.395H47.9241C47.1524 17.395 46.5269 16.7695 46.5269 15.9978C46.5269 15.2261 47.1524 14.6006 47.9241 14.6006H68.6027C69.3744 14.6006 69.9999 15.2261 69.9999 15.9978ZM57.7045 20.1894H47.9241C47.1524 20.1894 46.5269 20.8149 46.5269 21.5866C46.5269 22.3583 47.1524 22.9838 47.9241 22.9838H57.7045C58.4762 22.9838 59.1017 22.3583 59.1017 21.5866C59.1017 20.8149 58.4762 20.1894 57.7045 20.1894Z" fill="#A7D0FC"/>
</g>
<defs>
<clipPath id="clip0">
<rect width="70" height="70" fill="white"/>
</clipPath>
</defs>
</svg>
