<svg width="30" height="30" viewBox="0 0 30 30" fill="none" xmlns="http://www.w3.org/2000/svg">
<path d="M8.8638 5.79533H9.75015L10.5684 3.68168C10.9093 2.93168 11.6593 2.38623 12.4775 2.38623H17.4547C18.2729 2.38623 19.0229 2.86348 19.3638 3.68168L20.182 5.79533H21.1366C21.5457 5.79533 21.8184 6.06809 21.8184 6.47713V7.15893H17.7275V6.47713C17.7275 6.06803 18.0002 5.79533 18.4093 5.79533H18.7502L18.1365 4.15898C18.0002 3.88623 17.7956 3.74988 17.5229 3.74988H12.5457C12.2729 3.74988 12.0002 3.88623 11.932 4.15898L11.3184 5.79533H11.5911C12.0002 5.79533 12.2729 6.06809 12.2729 6.47713V7.15893H8.18201V6.47713C8.18195 6.06809 8.4547 5.79533 8.8638 5.79533Z" fill="#9BA7AF"/>
<path d="M2.0456 27.6137H27.9547C28.7047 27.6137 29.3184 27 29.3184 26.25V11.25H0.682011V26.25C0.681952 27 1.2956 27.6137 2.0456 27.6137Z" fill="#B06328"/>
<path d="M2.0456 14.3863L12.2729 16.5681C12.3411 16.2272 12.6137 16.0227 12.9546 16.0227H15.6819C16.091 16.0227 16.3637 16.2954 16.3637 16.7045H17.0455L28.9093 14.1818C29.0456 14.1818 29.182 14.1136 29.3184 14.0454V14.7272C29.182 14.7954 29.0456 14.8636 28.9093 14.8636L17.0456 17.3863H16.3638V19.4318C16.3638 19.8409 16.0911 20.1136 15.682 20.1136H13.6366C12.8866 20.1136 12.2729 19.4999 12.2729 18.7499V18.6136C12.2729 17.7953 11.7275 17.1136 10.9093 16.909L4.09105 15.4772C3.00015 15.2727 2.0456 16.0909 2.0456 17.1136V25.5C2.0456 25.9091 2.31836 26.1818 2.7274 26.1818H27.9547C28.8411 26.1818 28.9093 27.5454 28.0229 27.5454H2.11381C1.36381 27.5454 0.750153 26.9318 0.750153 26.1818V15.8863V14.7272V14.0454L2.0456 14.3863Z" fill="#A35425"/>
<path d="M29.3184 26.25V24.2046H27.2729C26.5229 24.2046 25.9093 24.8182 25.9093 25.5682V27.6137H27.9547C28.7047 27.6137 29.3184 27 29.3184 26.25Z" fill="#F6B545"/>
<path d="M27.9545 26.25C28.8408 26.25 28.909 27.5454 28.0227 27.6137C28.0227 27.6137 28.0227 27.6137 27.9545 27.6137H25.909V26.25H27.9545Z" fill="#F19920"/>
<path d="M2.04537 27.6137H4.09082V25.5682C4.09082 24.8182 3.47717 24.2046 2.72717 24.2046H0.681721V26.25C0.681721 27 1.29537 27.6137 2.04537 27.6137Z" fill="#F6B545"/>
<path d="M2.04537 24.2046V25.5682C2.04537 25.9773 2.31813 26.25 2.72717 26.25H4.09082V27.6137H2.04537C1.29537 27.6137 0.681721 27 0.681721 26.25V24.2046H2.04537Z" fill="#F19920"/>
<path d="M26.9317 25.568H28.2953C28.4999 25.568 28.6362 25.4317 28.6362 25.2271C28.6362 25.0226 28.4999 24.8862 28.2953 24.8862H26.9317C26.7271 24.8862 26.5908 25.0226 26.5908 25.2271C26.5908 25.4316 26.7271 25.568 26.9317 25.568Z" fill="#FFCB5B"/>
<path d="M1.36365 7.15918H28.6363C29.3863 7.15918 30 7.77283 30 8.52283V12.8865C30 13.5001 29.5228 14.1137 28.9091 14.2501L17.0454 16.7046H12.9546L1.0909 14.1819C0.477247 14.0455 0 13.5001 0 12.8183V8.45463C0 7.77283 0.613653 7.15918 1.36365 7.15918Z" fill="#C97629"/>
<path d="M13.6364 19.4319H16.3636C16.7727 19.4319 17.0454 19.1592 17.0454 18.7501V16.0229C17.0454 15.6138 16.7727 15.3411 16.3636 15.3411H13.6364C13.2273 15.3411 12.9546 15.6138 12.9546 16.0229V18.7501C12.9546 19.1592 13.2273 19.4319 13.6364 19.4319Z" fill="#F6B545"/>
<path d="M13.6363 15.3411V18.7502H17.0454C17.0454 19.1593 16.7727 19.432 16.3636 19.432H13.6364C13.2273 19.432 12.9546 19.1592 12.9546 18.7502V16.0229C12.9545 15.6138 13.2272 15.3411 13.6363 15.3411Z" fill="#F19920"/>
<path d="M14.6592 16.7045H16.0229C16.2274 16.7045 16.3638 16.5682 16.3638 16.3636C16.3638 16.1591 16.2274 16.0227 16.0229 16.0227H14.6592C14.4547 16.0227 14.3183 16.1591 14.3183 16.3636C14.3183 16.5682 14.4547 16.7045 14.6592 16.7045Z" fill="#FFCB5B"/>
<path d="M28.2953 7.84082H24.8862C24.6817 7.84082 24.5453 7.97717 24.5453 8.18172C24.5453 8.38627 24.6817 8.52262 24.8862 8.52262H28.2953C28.4999 8.52262 28.6362 8.38627 28.6362 8.18172C28.6362 7.97717 28.4999 7.84082 28.2953 7.84082Z" fill="#DA8C36"/>
<path d="M27.9544 17.0455V20.4546C27.9544 20.6591 28.0908 20.7955 28.2953 20.7955C28.4999 20.7955 28.6362 20.6591 28.6362 20.4546V17.0455C28.6362 16.8409 28.4999 16.7046 28.2953 16.7046C28.0908 16.7046 27.9544 16.8409 27.9544 17.0455Z" fill="#C97629"/>
<path d="M23.5229 7.84082H16.7047C16.5001 7.84082 16.3638 7.97717 16.3638 8.18172C16.3638 8.38627 16.5001 8.52262 16.7047 8.52262H23.5229C23.7274 8.52262 23.8638 8.38627 23.8638 8.18172C23.8638 7.97717 23.7274 7.84082 23.5229 7.84082Z" fill="#DA8C36"/>
<path d="M11.25 3.4089L10.2955 5.79524H9.75L10.5682 3.68159C10.841 3.06794 11.3864 2.59069 12 2.45435C11.7272 2.6589 11.3863 2.99979 11.25 3.4089Z" fill="#72818B"/>
<path d="M14.5909 3.06812H17.4545C18 3.06812 18.5454 3.40901 18.75 3.95446L19.5 5.79536H18.8182L18.2045 4.15901C18.0682 3.88626 17.8637 3.74991 17.5909 3.74991H12.9545C13.3636 3.34081 13.9772 3.06812 14.5909 3.06812Z" fill="#72818B"/>
<path d="M17.7275 6.47705H21.8184V7.15885H17.7275V6.47705Z" fill="#72818B"/>
<path d="M8.18205 6.47705H12.2729V7.15885H8.18205V6.47705Z" fill="#72818B"/>
</svg>
