<svg width="89" height="89" viewBox="0 0 89 89" fill="none" xmlns="http://www.w3.org/2000/svg">
<g clip-path="url(#clip0)">
<path d="M44.4938 4.56829e-07C25.7247 0.00261298 9.67056 11.6252 3.13333 28.0657C3.11312 28.1165 3.09292 28.1674 3.07289 28.2184C-0.266788 36.7093 2.79544 46.3828 10.3634 51.4794L35.8693 71.572C46.8743 80.2414 61.9648 81.8333 74.404 75.3887C76.9983 74.0447 79.144 72.5179 80.4426 70.7425C85.8506 63.3481 89.0319 54.2226 88.9999 44.3527C88.9206 19.9142 68.932 -0.00348291 44.4938 4.56829e-07Z" fill="#009FE3" fill-opacity="0.3"/>
<path d="M57.8416 72.3548C58.2119 71.4616 57.7879 70.4373 56.8947 70.067C56.0014 69.6968 54.9772 70.1208 54.6069 71.014C54.2367 71.9072 54.6606 72.9315 55.5539 73.3017C56.4471 73.672 57.4714 73.248 57.8416 72.3548Z" fill="#0091C8"/>
<path d="M56.6273 53.7294C56.9387 54.0416 63.9302 61.0528 64.2473 61.2945C66.9988 63.4565 71.1944 62.1542 72.1321 58.6454L76.4919 42.332C80.1426 38.3947 83.525 33.7775 86.2587 29.0913C82.7919 19.699 76.2465 11.7992 67.8472 6.6123C64.314 8.47887 60.7756 10.7441 57.5053 13.2216C54.4267 15.5534 52.522 17.3578 52.3234 17.529L35.5092 22.0227C31.7837 23.0183 30.564 27.6658 33.2692 30.3713L36.9614 34.0635L40.5953 37.6973C40.5893 38.8395 40.7102 39.91 40.9563 40.9802L35.5726 46.364C32.0225 46.1544 28.4024 47.4032 25.6899 50.1157C24.4218 51.3838 22.2963 50.9543 21.5756 49.3123C21.5294 49.2073 21.4817 49.1031 21.4321 48.9998C21.4167 48.9679 21.4002 48.9383 21.3833 48.9094C20.6863 47.4915 19.6791 46.2539 18.4447 45.2911C17.2358 44.3485 16.7401 42.7277 17.2612 41.2861C17.6693 40.1573 17.8564 38.9228 17.7695 37.6343C17.212 29.3719 6.24859 26.0929 1.42656 33.2839C-5.91237 62.9653 37.5775 95.4125 61.2501 85.7647C68.1001 82.9729 74.437 78.3547 79.3589 72.1358C82.6616 67.9626 76.8796 62.7088 73.0376 66.3916C71.1278 68.2221 69.0537 69.8838 66.8396 71.3538C65.9397 71.9512 64.8052 71.9536 63.8403 71.468C63.0445 71.0676 62.1131 71.6124 62.0293 72.4622C61.9232 73.5434 61.2924 74.5055 60.2994 74.9465C58.5083 75.7421 56.6534 76.4214 54.7447 76.9773C53.6898 77.2848 52.561 76.9296 51.8626 76.0814C51.8587 76.0767 51.8547 76.0718 51.8507 76.0671C50.1839 74.0532 47.7963 72.6221 45.1397 72.1391C43.3506 71.8139 42.641 69.6384 43.9268 68.3525C46.6393 65.64 47.888 62.0199 47.6785 58.4699L52.8919 53.2565C54.0825 53.5721 55.3282 53.7362 56.6273 53.7294Z" fill="#0091C8"/>
<path d="M24.7076 43.8075C25.9553 43.8075 26.9669 42.7961 26.9669 41.5484C26.9669 40.3006 25.9553 39.2891 24.7076 39.2891C23.4598 39.2891 22.4482 40.3006 22.4482 41.5484C22.4482 42.7961 23.4598 43.8075 24.7076 43.8075Z" fill="#0091C8"/>
<path d="M23.5779 34.2549C24.2018 34.2549 24.7075 33.7491 24.7075 33.1253C24.7075 32.5014 24.2018 31.9956 23.5779 31.9956C22.954 31.9956 22.4482 32.5014 22.4482 33.1253C22.4482 33.7491 22.954 34.2549 23.5779 34.2549Z" fill="#0091C8"/>
<path d="M51.3372 77.1396C49.7299 77.4407 48.1037 76.747 47.1251 75.4371C45.402 73.1309 42.8642 71.5784 40.0679 71.07C38.2789 70.7448 37.5693 68.5693 38.855 67.2834C43.8909 62.2475 43.8909 54.0827 38.855 49.0468C33.8191 44.0109 25.6543 44.0109 20.6184 49.0468C19.3503 50.3149 17.2247 49.8854 16.504 48.2433C15.7999 46.6389 14.7014 45.2468 13.331 44.1896C12.1186 43.2541 11.6717 41.6524 12.1914 40.2121C12.5983 39.0847 12.7846 37.8519 12.6977 36.5653C12.4008 32.1639 8.85959 28.5966 4.4601 28.2718C3.98218 28.2364 3.51176 28.2397 3.05091 28.277C1.08193 33.3037 0 38.7755 0 44.5001C0 69.0768 19.9233 89.0001 44.5 89.0001C50.4219 89.0001 56.0723 87.8405 61.2402 85.7406C61.2599 85.3255 61.2506 84.9044 61.2066 84.4789C60.6907 79.5003 55.9496 76.2752 51.3372 77.1396Z" fill="white"/>
<path d="M16.3605 47.931C15.8098 46.7831 14.0524 47.5669 14.538 48.7437C14.6782 49.0837 14.8623 49.3688 15.1025 49.5543C16.4728 50.6115 17.5713 52.0036 18.2755 53.6081C18.9962 55.2503 21.1217 55.6796 22.3898 54.4115C27.4257 49.3756 35.5906 49.3756 40.6265 54.4115C41.3906 55.1756 42.0369 56.0126 42.5691 56.899C42.288 54.0327 41.0504 51.2425 38.8548 49.0469C33.8189 44.011 25.6541 44.011 20.6182 49.0469C19.3501 50.3151 17.2245 49.8856 16.5038 48.2435C16.4577 48.1383 16.4099 48.0342 16.3605 47.931Z" fill="#F5F0F0"/>
<path d="M40.6268 72.6481C39.3409 73.934 40.0505 76.1093 41.8397 76.4347C44.6579 76.9469 47.2137 78.5202 48.9374 80.8565C49.8957 82.1552 51.5228 82.8016 53.1093 82.5043C55.1094 82.1295 57.1329 82.5245 58.8258 83.4979C59.8466 84.0848 61.017 83.0374 60.5365 81.9626C58.9996 78.5256 55.2007 76.4321 51.3707 77.1336C49.7675 77.4273 48.1333 76.8032 47.1656 75.4915C46.1446 74.1078 44.8316 72.9922 43.3449 72.2062C42.4525 71.7342 41.3528 71.9213 40.6394 72.6357L40.6268 72.6481Z" fill="#F5F0F0"/>
<path d="M3.8812 28.249C3.78663 28.248 3.6924 28.2487 3.59852 28.2506C3.54279 28.2518 3.48671 28.2523 3.43115 28.2546C3.30366 28.2595 3.17686 28.2668 3.05094 28.2769C2.22503 30.3854 1.55745 32.5733 1.05811 34.8242C2.55909 33.9488 4.33769 33.4964 6.23177 33.6362C7.00317 33.6932 7.74808 33.8499 8.45364 34.0932C10.2053 34.6976 11.6115 32.533 10.3768 31.1623C10.3235 31.104 10.2681 31.0474 10.2133 30.9904C10.1767 30.9525 10.141 30.9138 10.1039 30.8765C10.0502 30.8227 9.99485 30.7708 9.93999 30.7184C9.89715 30.6774 9.85482 30.6362 9.81111 30.5961C9.75851 30.5479 9.70452 30.5014 9.6507 30.4543C9.60245 30.4122 9.55438 30.3695 9.50509 30.3284C9.45354 30.2852 9.40077 30.2434 9.34834 30.2014C9.29452 30.1584 9.24088 30.1154 9.18619 30.0738C9.13586 30.0353 9.08448 29.998 9.03327 29.9606C8.97423 29.9176 8.91519 29.8747 8.8551 29.8331C8.80581 29.7989 8.75582 29.7655 8.70566 29.7322C8.64174 29.6897 8.57747 29.6479 8.51251 29.6072C8.46426 29.5769 8.4155 29.5471 8.36656 29.5177C8.29776 29.4764 8.22861 29.4358 8.15877 29.3963C8.11157 29.3694 8.06403 29.3431 8.0163 29.3174C7.94315 29.2778 7.86948 29.2393 7.79528 29.2017C7.74878 29.1782 7.70193 29.1547 7.6549 29.1319C7.57792 29.0946 7.50024 29.0587 7.42204 29.0237C7.37606 29.003 7.33008 28.9823 7.28358 28.9624C7.20294 28.9279 7.1216 28.895 7.03992 28.8628C6.99428 28.8449 6.94883 28.8266 6.90285 28.8093C6.81924 28.778 6.73477 28.7487 6.65013 28.7198C6.6045 28.7043 6.55904 28.6881 6.51288 28.6733C6.42702 28.6456 6.34011 28.6202 6.2532 28.5951C6.20704 28.5819 6.16124 28.5677 6.11491 28.555C6.02678 28.5312 5.93795 28.5099 5.84878 28.4887C5.80245 28.4777 5.75647 28.4655 5.70979 28.4552C5.61888 28.4352 5.52692 28.418 5.43513 28.4007C5.3895 28.3922 5.34421 28.3823 5.29823 28.3744C5.20052 28.3577 5.10195 28.3441 5.00319 28.3307C4.96244 28.3251 4.9222 28.3182 4.88127 28.3131C4.74159 28.296 4.60121 28.2819 4.45996 28.2717C4.3154 28.261 4.17171 28.2551 4.02837 28.2513C3.97943 28.2499 3.93032 28.2495 3.8812 28.249Z" fill="#F5F0F0"/>
<path d="M72.2099 38.3091L64.8277 30.9268L54.4478 49.0742L58.7121 59.8162C61.4291 62.5332 66.0686 61.2885 67.0608 57.5762L72.2099 38.3091Z" fill="#5DB6DC"/>
<path d="M59.1321 60.1935C60.8222 61.5508 62.8583 59.0719 61.257 57.6108C61.1981 57.5571 61.1401 57.5017 61.083 57.4444C59.8775 56.239 60.163 54.2251 61.6459 53.3839C61.6824 53.3631 61.7188 53.3424 61.7554 53.3213C66.6527 50.5191 70.1965 45.8405 71.6534 40.3894L72.2095 38.3086L64.8272 30.9263L49.6962 46.0573L47.3247 48.4288L55.0193 56.1234L58.7115 59.8156C58.847 59.9516 58.9875 60.0773 59.1321 60.1935Z" fill="#009FE3"/>
<path d="M49.7046 15.8042L57.0869 23.1865L37.6725 30.9267L28.1974 29.3021C25.4804 26.585 26.7252 21.9455 30.4374 20.9533L49.7046 15.8042Z" fill="#5DB6DC"/>
<path d="M27.8203 28.8816C26.4628 27.1915 28.9419 25.1555 30.403 26.7568C30.4566 26.8156 30.512 26.8736 30.5693 26.9308C31.7747 28.1362 33.7887 27.8507 34.6299 26.3679C34.6506 26.3313 34.6713 26.2949 34.6924 26.2583C37.4946 21.361 42.1733 17.8172 47.6244 16.3603L49.7052 15.8042L57.0875 23.1865L41.9565 38.3175L39.585 40.689L31.8904 32.9944L28.1982 29.3022C28.062 29.1666 27.9362 29.0262 27.8203 28.8816Z" fill="#009FE3"/>
<path d="M69.7722 42.9764C57.295 55.4536 47.2145 54.5361 40.4311 47.7527C33.6478 40.9694 34.8476 34.6645 47.3251 22.1873C59.8025 9.71003 78.8321 -4.2149 85.6154 2.56861C92.3988 9.35212 82.2495 30.4989 69.7722 42.9764Z" fill="#FEC502"/>
<path d="M70.4581 21.5287C69.9087 20.6192 69.2638 19.8287 68.5481 19.1567C66.6521 17.3766 68.4287 14.2175 70.9083 15.0027C72.4474 15.49 73.8759 16.3434 75.0565 17.5239L75.2489 17.7164C79.0848 21.5523 85.6612 19.7777 87.0042 14.5218C88.0329 10.4964 88.2508 6.486 86.5134 3.70297C82.4173 -2.84454 70.2431 1.69167 63.3849 5.22311C63.2471 5.29417 63.1092 5.36558 62.9714 5.43786C62.9713 5.43803 62.9711 5.43803 62.9707 5.43821C56.6462 8.75315 50.2256 13.3937 45.2073 18.412C32.7301 30.8892 33.6476 40.9698 40.4309 47.7531C41.548 48.8702 42.7552 49.8271 44.0474 50.5924C41.6205 46.4956 41.1316 41.5402 43.6527 35.8543C45.4001 31.9134 50.6461 30.9774 53.5994 34.1176C53.6747 34.1976 53.7513 34.2766 53.8293 34.3547C58.499 39.0243 66.4475 38.4163 70.2633 32.531C72.4155 29.2115 72.5037 24.9151 70.4581 21.5287Z" fill="#FFA50A"/>
<path d="M84.2328 22.1873C88.0329 13.8915 89.233 6.18664 85.6148 2.56847C81.9966 -1.0497 76.712 2.57039 68.416 6.37057L84.2328 22.1873Z" fill="#5DB6DC"/>
<path d="M81.4364 16.1312L79.0465 13.7413C76.9821 11.6769 77.8484 8.15431 80.6363 7.28748C81.9481 6.87957 83.2197 6.55998 84.4346 6.33913C86.1837 6.0211 86.8917 3.86072 85.6424 2.59591C85.6334 2.58685 85.6245 2.57779 85.6154 2.56874C81.9972 -1.04944 74.2926 0.150583 65.9966 3.95076L81.4364 19.3906C82.3365 18.4905 82.3365 17.0313 81.4364 16.1312Z" fill="#009FE3"/>
<path d="M63.0227 35.7408C68.8658 35.7408 73.6026 31.004 73.6026 25.1609C73.6026 19.3178 68.8658 14.5811 63.0227 14.5811C57.1796 14.5811 52.4429 19.3178 52.4429 25.1609C52.4429 31.004 57.1796 35.7408 63.0227 35.7408Z" fill="white"/>
<path d="M24.4632 71.9715L20.1147 72.5299C19.2758 72.6375 18.5613 71.9233 18.669 71.0841L19.2274 66.7357C19.785 62.3914 21.7678 58.3549 24.8648 55.2578C27.9234 52.1992 32.8825 52.1992 35.9411 55.2578C38.9996 58.3164 38.9996 63.2755 35.9411 66.334C32.844 69.4311 28.8075 71.4138 24.4632 71.9715Z" fill="#F5F0F0"/>
<path d="M25.0609 68.0773L19.0537 68.8485C19.0537 68.8485 23.6364 56.0611 26.7335 52.964C26.7335 52.964 31.5701 48.4274 34.5031 49.8939C35.2376 50.2611 35.9263 50.751 36.5386 51.3634C39.5972 54.422 39.5972 59.3811 36.5386 62.4396C33.4417 65.5369 29.4051 67.5196 25.0609 68.0773Z" fill="#FEC502"/>
<path d="M68.3133 30.4508C65.3918 33.3723 60.6549 33.3723 57.7334 30.4508C54.8119 27.5293 56.114 24.4758 59.0355 21.5543C61.5919 18.9979 64.2358 16.9951 67.1397 18.9123C67.5546 19.1863 67.948 19.5057 68.3133 19.871C71.2348 22.7925 71.2348 27.5292 68.3133 30.4508Z" fill="#00B7F0"/>
<path d="M35.8862 39.9033L43.6798 47.6969L38.2812 53.0955L30.4877 45.3019L35.8862 39.9033Z" fill="#009FE3"/>
<path d="M42.5913 57.416L36.6691 51.4938C35.178 50.0027 35.178 47.5854 36.6691 46.0944C38.1601 44.6033 40.5774 44.6033 42.0685 46.0944L47.9907 52.0166L42.5913 57.416Z" fill="#5DB6DC"/>
<path d="M63.2072 29.3069C63.8292 28.685 63.8292 27.6767 63.2072 27.0547L60.9397 24.7873C60.4411 24.2886 60.4139 23.4787 60.8958 22.9637C60.9094 22.9491 60.9232 22.9346 60.937 22.9202C61.4406 22.3903 62.2908 22.4004 62.8077 22.9174L63.4937 23.6034C64.0936 24.2033 65.0698 24.2743 65.7071 23.7146C66.4053 23.1011 66.4313 22.0366 65.7844 21.3899C65.4975 21.1031 65.6945 20.6159 66.0998 20.6022C66.1144 20.6016 66.1289 20.6013 66.1435 20.6008C67.2262 20.5703 67.586 19.1311 66.6357 18.6114C63.9112 17.1214 60.3911 17.4253 57.9751 19.6395C54.8137 22.5367 54.7331 27.4508 57.7331 30.4509C57.9386 30.6564 58.1532 30.8473 58.3755 31.0235C58.8105 31.3687 59.4247 30.9436 59.2514 30.4158C59.2463 30.4002 59.2411 30.3845 59.236 30.3688C58.9013 29.3264 60.1809 28.5327 60.9551 29.3069C61.577 29.9287 62.5853 29.9287 63.2072 29.3069Z" fill="#0091C8"/>
<path d="M25.4624 51.3634C22.3653 54.4605 20.3828 58.497 19.8249 62.8413L19.0537 68.8485C20.2621 68.6933 21.2141 67.7462 21.378 66.539C21.4814 65.7767 21.6175 64.982 21.8817 63.9931C22.2243 62.7107 23.8233 62.2752 24.7619 63.2138L25.6941 64.146C26.4325 64.8844 27.6299 64.8844 28.3684 64.146C29.1069 63.4075 29.1069 62.2101 28.3684 61.4716L25.8198 58.923C25.1733 58.2765 25.1221 57.2454 25.7012 56.538L25.7141 56.5223C26.3752 55.7147 27.589 55.6542 28.327 56.3922L29.2018 57.267C29.9403 58.0055 31.1377 58.0055 31.8762 57.267C32.6146 56.5285 32.6146 55.3311 31.8762 54.5927C31.2126 53.9291 31.6825 52.785 32.6209 52.793C32.6517 52.7932 32.6827 52.7937 32.7136 52.7944C34.7142 52.835 35.2122 50.0274 33.3007 49.4348C30.7021 48.629 27.6933 49.1325 25.4624 51.3634Z" fill="#FFA50A"/>
<path d="M51.1259 72.3494C52.0926 72.3494 52.8763 71.5657 52.8763 70.599C52.8763 69.6323 52.0926 68.8486 51.1259 68.8486C50.1592 68.8486 49.3755 69.6323 49.3755 70.599C49.3755 71.5657 50.1592 72.3494 51.1259 72.3494Z" fill="white"/>
<path d="M57.9931 72.3494C58.5685 72.3494 59.0349 71.8829 59.0349 71.3075C59.0349 70.7321 58.5685 70.2656 57.9931 70.2656C57.4176 70.2656 56.9512 70.7321 56.9512 71.3075C56.9512 71.8829 57.4176 72.3494 57.9931 72.3494Z" fill="white"/>
<path d="M19.6358 42.7379C20.8836 42.7379 21.8951 41.7263 21.8951 40.4786C21.8951 39.2308 20.8836 38.2192 19.6358 38.2192C18.388 38.2192 17.3765 39.2308 17.3765 40.4786C17.3765 41.7263 18.388 42.7379 19.6358 42.7379Z" fill="white"/>
<path d="M18.5061 33.1861C19.13 33.1861 19.6358 32.6803 19.6358 32.0564C19.6358 31.4325 19.13 30.9268 18.5061 30.9268C17.8822 30.9268 17.3765 31.4325 17.3765 32.0564C17.3765 32.6803 17.8822 33.1861 18.5061 33.1861Z" fill="white"/>
</g>
<defs>
<clipPath id="clip0">
<rect width="89" height="89" fill="white"/>
</clipPath>
</defs>
</svg>
