<svg width="85" height="85" viewBox="0 0 85 85" fill="none" xmlns="http://www.w3.org/2000/svg">
<path d="M56.0187 43.162C54.4613 41.9456 52.2129 42.2219 50.9965 43.7791L34.7183 64.4426C34.5468 64.6603 34.2328 64.7 34.0136 64.5304C31.918 62.9101 22.1949 55.3918 22.1809 55.3808C20.6236 54.1644 18.3751 54.4407 17.1587 55.998L3.76016 73.1508C2.56584 74.6797 2.73769 76.9105 4.22323 78.1584C5.78288 79.4686 8.10374 79.2149 9.34686 77.6234L20.3279 63.5653C20.4996 63.3455 20.8169 63.3065 21.0367 63.478L32.76 72.6262C34.4106 73.9143 36.4963 73.4773 37.7033 71.9479C38.3124 71.1761 56.4956 48.3616 56.636 48.1842C57.8524 46.627 57.576 44.3784 56.0187 43.162Z" fill="#98D5B9"/>
<path d="M56.6351 48.1837C56.4954 48.3616 38.3131 71.1761 37.7035 71.9476C36.4954 73.4779 34.4111 73.9144 32.7602 72.627L21.037 63.4786C20.8163 63.3072 20.4989 63.3452 20.3273 63.5659L9.34709 77.6242C8.10413 79.2149 5.78326 79.4689 4.22284 78.1592C2.86083 77.0146 2.60359 75.0431 3.49096 73.5462C3.56553 73.6255 3.6449 73.6986 3.72905 73.7684C5.28793 75.0796 7.60879 74.8256 8.85176 73.2334L19.8335 59.1766C20.0049 58.9559 20.3225 58.9163 20.5415 59.0894L32.2647 68.2362C33.9156 69.5252 36.0015 69.0886 37.208 67.5583C37.8176 66.7868 56.0001 43.9723 56.1414 43.7944C56.2223 43.6896 56.2985 43.5816 56.3668 43.4722C57.6113 44.7326 57.7558 46.7502 56.6351 48.1837Z" fill="#7ACAA6"/>
<path d="M62.596 53.591L61.1014 38.9615C61.0114 38.0804 60.2241 37.4388 59.3429 37.5287L44.7083 39.0196C42.7423 39.2199 41.3111 40.9762 41.512 42.9423C41.7129 44.9079 43.4689 46.3384 45.4345 46.1375L53.8429 45.2784C54.2314 45.2387 54.5785 45.5215 54.6182 45.9099L55.4773 54.3184C55.6782 56.284 57.4343 57.7145 59.3998 57.5137L59.4009 57.5135C61.3662 57.3126 62.7968 55.5564 62.596 53.591Z" fill="#57BE92"/>
<path d="M59.4004 57.513H59.3989C58.7132 57.5828 58.0528 57.4543 57.4748 57.1733C58.6844 56.5908 59.4924 55.3526 59.4924 53.9603C59.4924 53.838 59.4861 53.7142 59.4734 53.5903L57.9797 38.9621C57.9257 38.4367 57.6257 37.9969 57.2051 37.7462L59.3433 37.5288C60.2243 37.4383 61.0116 38.0795 61.1006 38.9623L62.596 53.5905C62.7975 55.5573 61.3657 57.3131 59.4004 57.513Z" fill="#09A76D"/>
<path d="M57.2195 12.9878L58.8623 16.3162C59.1204 16.8391 59.6193 17.2017 60.1965 17.2855L63.8696 17.8193C65.323 18.0305 65.9033 19.8165 64.8516 20.8418L62.1937 23.4326C61.776 23.8396 61.5855 24.4262 61.684 25.001L62.3115 28.6593C62.5598 30.1069 61.0404 31.2107 59.7405 30.5273L56.4552 28.8002C55.939 28.5287 55.3223 28.5287 54.806 28.8002L51.5207 30.5273C50.2208 31.2107 48.7014 30.1069 48.9497 28.6593L49.5772 25.001C49.6757 24.4262 49.4852 23.8397 49.0675 23.4326L46.4096 20.8418C45.3579 19.8167 45.9382 18.0305 47.3916 17.8193L51.0648 17.2855C51.6419 17.2017 52.1408 16.8391 52.399 16.3162L54.0417 12.9878C54.6916 11.6707 56.5696 11.6707 57.2195 12.9878Z" fill="#FE9738"/>
<path d="M62.1948 23.4327C61.7764 23.8392 61.5868 24.4267 61.6842 25.0005L62.3126 28.6588C62.5603 30.1072 61.042 31.2104 59.7405 30.5273L58.3896 29.8169C58.6799 29.3968 58.82 28.8622 58.721 28.2815L57.9797 23.9587C57.8636 23.2808 58.089 22.5873 58.5826 22.1057L61.7234 19.0453C62.1469 18.6319 62.3467 18.1128 62.3571 17.5986L63.8703 17.819C65.3237 18.0308 65.9044 19.8173 64.8523 20.8419L62.1948 23.4327Z" fill="#FE860A"/>
<path d="M75.063 30.5763L76.4636 33.4141C76.6836 33.86 77.109 34.1691 77.6011 34.2406L80.7329 34.6956C81.9722 34.8757 82.4669 36.3986 81.5703 37.2727L79.304 39.4816C78.948 39.8287 78.7854 40.3288 78.8695 40.8189L79.4046 43.938C79.6163 45.1722 78.3208 46.1135 77.2125 45.5307L74.4112 44.058C73.971 43.8266 73.4453 43.8266 73.0051 44.058L70.2039 45.5307C69.0955 46.1135 67.8001 45.1722 68.0118 43.938L68.5468 40.8189C68.6308 40.3288 68.4683 39.8287 68.1123 39.4816L65.8461 37.2727C64.9494 36.3986 65.4441 34.8757 66.6834 34.6956L69.8152 34.2406C70.3073 34.1691 70.7327 33.86 70.9527 33.4141L72.3533 30.5763C72.9075 29.4534 74.5088 29.4534 75.063 30.5763Z" fill="#FE9738"/>
<path d="M79.3044 39.482C78.9475 39.8286 78.786 40.3295 78.869 40.8188L79.4049 43.938C79.6161 45.1729 78.3214 46.1135 77.2119 45.5311L76.06 44.9254C76.3075 44.5672 76.427 44.1114 76.3426 43.6163L75.7106 39.9307C75.6116 39.3526 75.8039 38.7614 76.2246 38.3507L78.9026 35.7412C79.2638 35.3889 79.4341 34.9462 79.4429 34.5078L80.7331 34.6957C81.9723 34.8762 82.4674 36.3994 81.5704 37.2732L79.3044 39.482Z" fill="#FE860A"/>
</svg>
