<svg width="30" height="30" viewBox="0 0 30 30" fill="none" xmlns="http://www.w3.org/2000/svg">
<g clip-path="url(#clip0)">
<path d="M21.9448 5.27344H17.5503V0.878906C17.5503 0.38666 17.1636 0 16.6714 0H2.63672C1.17762 0 0 1.17768 0 2.63672V27.3633C0 28.8222 1.17762 30 2.63672 30H20.187C21.6461 30 22.8237 28.8222 22.8237 27.3633V6.15234C22.8237 5.6601 22.4371 5.27344 21.9448 5.27344Z" fill="#CAE8F9"/>
<path d="M22.8237 6.15234V27.3633C22.8237 28.8222 21.6461 30 20.187 30H11.3979V0H16.6714C17.1636 0 17.5503 0.38666 17.5503 0.878906V5.27344H21.9448C22.4371 5.27344 22.8237 5.6601 22.8237 6.15234Z" fill="#B7E0F6"/>
<path d="M22.8237 7.03125H16.6714C16.1856 7.03125 15.7925 6.63814 15.7925 6.15234V0H17.7082C18.3983 0 19.0746 0.279785 19.5622 0.768164L22.0564 3.26326C22.5439 3.75252 22.8237 4.42711 22.8237 5.11547V7.03125Z" fill="#CAE8F9"/>
<path d="M29.2222 9.42188C28.238 8.41992 26.4802 8.41992 25.4957 9.42188L24.5992 10.336L23.9664 10.9512C23.6147 11.2852 23.6147 11.8477 23.9664 12.1816L25.2144 13.4297L26.4625 14.6777C26.7788 15.0293 27.3767 15.0293 27.693 14.6777L28.3258 14.0626L29.2222 13.1484C30.2593 12.164 30.2593 10.4062 29.2222 9.42188Z" fill="#1689FC"/>
<path d="M19.2024 19.4414L17.3917 17.6308C17.3568 17.5957 17.3216 17.5957 17.2864 17.6308L17.2338 17.666C17.1283 17.7715 17.0579 17.8945 17.0227 18.0176L15.7747 21.7617C15.6515 22.1132 15.7571 22.4472 15.9856 22.6582V22.6757C16.2317 22.9042 16.5656 22.9921 16.8821 22.8691L20.6262 21.621C20.7494 21.5858 20.8723 21.5155 20.9777 21.4101L21.013 21.3748C21.0482 21.3397 21.0482 21.3046 21.013 21.2694C20.4329 20.6719 19.8001 20.039 19.2024 19.4414Z" fill="#FEDBAB"/>
<path d="M16.6713 10.5469H4.3944C3.23442 10.5469 3.23442 8.78906 4.3944 8.78906H16.6713C17.8313 8.78906 17.8313 10.5469 16.6713 10.5469Z" fill="#17ACE8"/>
<path d="M13.1556 14.0625H4.3944C3.23442 14.0625 3.23442 12.3047 4.3944 12.3047H13.1556C14.3157 12.3047 14.3157 14.0625 13.1556 14.0625Z" fill="#17ACE8"/>
<path d="M13.1556 17.5781H4.3944C3.23442 17.5781 3.23442 15.8203 4.3944 15.8203H13.1556C14.3157 15.8203 14.3157 17.5781 13.1556 17.5781Z" fill="#17ACE8"/>
<path d="M13.1556 21.0938H4.3944C3.23442 21.0938 3.23442 19.3359 4.3944 19.3359H13.1556C14.3157 19.3359 14.3157 21.0938 13.1556 21.0938Z" fill="#17ACE8"/>
<path d="M16.6713 26.4844H11.3978C10.2378 26.4844 10.2378 24.7266 11.3978 24.7266H16.6713C17.8313 24.7266 17.8313 26.4844 16.6713 26.4844Z" fill="#17ACE8"/>
<path d="M19.2026 19.4414C19.8004 20.039 20.4332 20.6719 21.0132 21.2695C21.0484 21.3047 21.0484 21.3398 21.0132 21.3749L20.978 21.4102C20.8726 21.5156 20.7497 21.5859 20.6265 21.6211L16.8823 22.8692C16.5658 22.9921 16.2319 22.9043 15.9858 22.6758V22.6582L19.2026 19.4414Z" fill="#FEC478"/>
<path d="M29.2222 13.1484L28.3257 14.0626L27.6929 14.6777C27.3766 15.0293 26.7788 15.0293 26.4625 14.6777L25.2144 13.4297L29.2222 9.42188C30.2593 10.4062 30.2593 12.1641 29.2222 13.1484Z" fill="#136EF1"/>
<path d="M28.3258 14.0625L27.693 14.6777C24.2126 18.1406 25.3726 16.9804 22.2436 20.1094C22.2436 20.1445 20.9956 21.3925 20.978 21.4102C20.8727 21.5156 20.7497 21.5859 20.6265 21.6211L17.0229 18.0176C17.0582 17.8945 17.1285 17.7715 17.2341 17.666C17.2517 17.6484 18.4997 16.4003 18.5349 16.4003C20.8199 14.1152 19.6949 15.2578 23.9665 10.9512L24.5817 10.3184L28.3258 14.0625Z" fill="#FD003A"/>
<path d="M28.3258 14.0625L27.693 14.6777C24.2126 18.1406 25.3726 16.9804 22.2436 20.1094C22.2436 20.1445 20.9956 21.3925 20.978 21.4102C20.8727 21.5156 20.7497 21.5859 20.6265 21.6211L18.8335 19.8281L26.4626 12.1992L28.3258 14.0625Z" fill="#E50027"/>
<path d="M13.1558 21.0938H11.3979V19.3359H13.1558C14.3158 19.3359 14.3158 21.0938 13.1558 21.0938Z" fill="#1689FC"/>
<path d="M13.1558 17.5781H11.3979V15.8203H13.1558C14.3158 15.8203 14.3158 17.5781 13.1558 17.5781Z" fill="#1689FC"/>
<path d="M13.1558 14.0625H11.3979V12.3047H13.1558C14.3158 12.3047 14.3158 14.0625 13.1558 14.0625Z" fill="#1689FC"/>
<path d="M16.6714 26.4844H11.3979V24.7266H16.6714C17.8314 24.7266 17.8314 26.4844 16.6714 26.4844Z" fill="#1689FC"/>
<path d="M16.6714 10.5469H11.3979V8.78906H16.6714C17.8314 8.78906 17.8314 10.5469 16.6714 10.5469Z" fill="#1689FC"/>
</g>
<defs>
<clipPath id="clip0">
<rect width="30" height="30" fill="white"/>
</clipPath>
</defs>
</svg>
