<svg width="89" height="89" viewBox="0 0 89 89" fill="none" xmlns="http://www.w3.org/2000/svg">
<g clip-path="url(#clip0)">
<path d="M0.850389 47.7673C-0.283492 45.7215 -0.283492 43.2787 0.850563 41.2328C19.8322 6.98586 69.1591 6.97022 88.1497 41.233C89.2835 43.2789 89.2835 45.7214 88.1497 47.7673C69.1678 82.0144 19.8409 82.0301 0.850389 47.7673Z" fill="#DFEBFA"/>
<path d="M8.0135 47.7674C6.87962 45.7216 6.87962 43.2788 8.01367 41.2328C16.8415 25.3053 32.2331 16.7834 48.084 15.669C29.8487 14.3868 11.0065 22.9094 0.850563 41.2328C-0.283492 43.2788 -0.283492 45.7216 0.850389 47.7674C11.0089 66.0953 29.8477 74.613 48.079 73.3312C32.2318 72.217 16.8434 63.6984 8.0135 47.7674Z" fill="#B1DBFC"/>
<path d="M5.99195 44.0825C5.84907 44.3401 5.84907 44.6601 5.99178 44.9175C22.7391 75.1336 66.2528 75.1482 83.0082 44.9177C83.151 44.6601 83.151 44.3401 83.0082 44.0825C66.2608 13.8663 22.7471 13.8522 5.99195 44.0825Z" fill="#B1DBFC"/>
<path d="M44.5001 66.8172C32.3817 64.5524 21.0815 57.2542 14.2439 44.9175C14.1012 44.6602 14.1012 44.34 14.2441 44.0824C21.0837 31.742 32.3832 24.4454 44.5001 22.182V21.4175C29.4348 21.4164 14.3691 28.9684 5.99195 44.0826C5.84907 44.3402 5.84907 44.6602 5.99178 44.9177C14.3661 60.0266 29.4327 67.5822 44.5001 67.5829V66.8172Z" fill="#8BCAFF"/>
<path d="M44.5004 67.5848C57.2499 67.5848 67.5853 57.2494 67.5853 44.4999C67.5853 31.7505 57.2499 21.415 44.5004 21.415C31.751 21.415 21.4155 31.7505 21.4155 44.4999C21.4155 57.2494 31.751 67.5848 44.5004 67.5848Z" fill="#FEE55A"/>
<path d="M27.0861 44.4999C27.0861 32.7106 35.9241 22.9863 47.3357 21.5885C46.4065 21.4747 45.4605 21.415 44.5004 21.415C31.751 21.415 21.4155 31.7505 21.4155 44.4999C21.4155 57.2494 31.751 67.5848 44.5004 67.5848C45.4605 67.5848 46.4065 67.5252 47.3357 67.4113C35.9241 66.0136 27.0861 56.2893 27.0861 44.4999Z" fill="#FFD301"/>
<path d="M31.0419 45.6758C30.9668 44.9758 30.9263 44.2676 30.9263 43.5526V35.7443C30.9263 34.5996 31.6506 33.5719 32.7285 33.1867H32.7287L43.5867 29.3088C43.8812 29.2036 44.1906 29.1511 44.5 29.1511V45.6756H31.0419V45.6758Z" fill="#23A8FE"/>
<path d="M36.3184 43.5499V33.8073C36.3184 33.0006 36.5865 32.2406 37.0445 31.6453L32.7287 33.1866H32.7285C31.6506 33.5718 30.9263 34.5995 30.9263 35.7441V43.5525C30.9263 44.2675 30.9668 44.9756 31.0419 45.6756H36.4067C36.3502 44.9718 36.3184 44.2631 36.3184 43.5499Z" fill="#0193FA"/>
<path d="M45.4135 29.309L56.2715 33.1868C57.3494 33.5718 58.0735 34.5997 58.0735 35.7443V43.5527C58.0735 44.2678 58.033 44.976 57.9579 45.6758H44.5V29.1514C44.8094 29.1512 45.119 29.2039 45.4135 29.309Z" fill="#8BCAFF"/>
<path d="M44.5001 62.2001C44.1636 62.2001 43.8271 62.1371 43.5072 62.0114C36.5666 59.2848 31.822 52.9489 31.042 45.6758H44.5001V62.2001Z" fill="#8BCAFF"/>
<path d="M36.4069 45.6755H31.042C31.822 52.9487 36.5666 59.2845 43.5072 62.0112C43.7203 62.095 43.9409 62.1482 44.1638 62.1762C39.7129 57.9813 36.9184 52.0592 36.4069 45.6755Z" fill="#60B8FE"/>
<path d="M57.9579 45.6755C57.1771 52.9595 52.4215 59.2894 45.4931 62.0112C45.1729 62.1371 44.8364 62.2 44.5 62.2V45.6755H57.9579Z" fill="#23A8FE"/>
</g>
<defs>
<clipPath id="clip0">
<rect width="89" height="89" fill="white"/>
</clipPath>
</defs>
</svg>
