<svg width="89" height="89" viewBox="0 0 89 89" fill="none" xmlns="http://www.w3.org/2000/svg">
<path d="M89 44.5C89 69.077 69.077 89 44.5 89C37.0492 89 30.0275 87.1694 23.8593 83.9345C21.7598 82.8318 19.758 81.5675 17.871 80.1565C16.8865 79.4204 15.9345 78.645 15.0171 77.8315C5.80695 69.68 0 57.768 0 44.5C0 19.923 19.923 0 44.5 0C69.077 0 89 19.923 89 44.5Z" fill="#009FE3" fill-opacity="0.3"/>
<path d="M66.4234 78.1487V83.2332C61.982 85.7537 57.0639 87.53 51.8382 88.3964C50.7171 88.5818 49.5838 88.7271 48.4377 88.8269C47.724 88.8907 47.0049 88.9362 46.2798 88.9634C45.6897 88.9885 45.0956 88.9994 44.5001 88.9994C43.1705 88.9994 41.8573 88.9416 40.5584 88.8269C37.2638 88.5383 34.0724 87.8898 31.0229 86.9216C28.0624 85.9825 25.2343 84.7406 22.5767 83.2332V78.1487C22.5767 70.4989 27.7718 64.0618 34.8281 62.1741C35.0862 62.1056 35.3456 62.0417 35.609 61.9854C36.3104 61.8326 37.0295 61.7274 37.7615 61.6676C38.2083 61.6309 38.6585 61.6133 39.1148 61.6133H49.884C51.0879 61.6133 52.2612 61.7403 53.3911 61.9854C53.4563 61.9983 53.5215 62.0125 53.5853 62.0275C53.7761 62.0709 53.9669 62.1178 54.1536 62.1687C54.1591 62.1708 54.1631 62.1708 54.1686 62.1728C56.0304 62.6705 57.7626 63.486 59.3033 64.5555C63.6062 67.5418 66.4234 72.5162 66.4234 78.1487Z" fill="#3D4159"/>
<path d="M54.2086 61.9854L54.1686 62.1728L48.4377 88.8269C47.1407 88.9416 45.8262 88.9993 44.5001 88.9993C43.1705 88.9993 41.8573 88.9416 40.5584 88.8269L34.8281 62.1741L34.7881 61.9854H54.2086Z" fill="#F2F0EC"/>
<path d="M48.9389 67.5796L44.4995 74.6998L40.0601 67.5796" fill="#F74F4F"/>
<path d="M48.598 88.8113C47.2481 88.9363 45.8805 89.0001 44.5001 89.0001C43.1176 89.0001 41.7501 88.9363 40.4009 88.8127L44.5001 72.8477L48.598 88.8113Z" fill="#F74F4F"/>
<path d="M44.498 68.3831L37.0533 72.5204L34.7881 61.9861L39.4142 59.2612" fill="#D8D5D0"/>
<path d="M44.498 68.3831L51.9435 72.5204L54.208 61.9861L49.5818 59.2612" fill="#D8D5D0"/>
<path d="M59.3033 63.6477L54.4898 76.202H56.8514L51.8382 88.3965C50.7172 88.5819 49.5839 88.7272 48.4377 88.827C47.7241 88.8908 47.005 88.9363 46.2798 88.9635L54.2087 61.0776L59.3033 63.6477Z" fill="#2A2F4F"/>
<path d="M29.6392 63.6475L34.452 76.2018H32.0911L37.1043 88.3963C38.2246 88.5816 39.3579 88.7269 40.5041 88.8268C41.2177 88.8906 41.9375 88.9361 42.662 88.9632L34.7881 61.2607L29.6392 63.6475Z" fill="#2A2F4F"/>
<path d="M50.3993 55.2427V62.4837C50.3993 65.1346 48.6515 67.3753 46.2437 68.1195C45.693 68.2906 45.1056 68.383 44.4979 68.383C41.2393 68.383 38.5986 65.7423 38.5986 62.4837V55.2427H50.3993Z" fill="#EAB599"/>
<path d="M50.3995 62.0254V62.4837C50.3995 65.1346 48.6517 67.3754 46.2439 68.1196C44.0717 67.4521 42.4387 65.5631 42.1372 63.2524C42.531 63.2761 42.9276 63.2884 43.3255 63.2884C44.4418 63.2884 45.5364 63.2001 46.6017 63.0249C47.9156 62.8137 49.1847 62.4756 50.3995 62.0254Z" fill="#F6CAAE"/>
<path d="M28.3141 43.3763C28.3141 46.1073 26.3185 48.3725 23.7056 48.7928C23.4204 48.839 23.1264 48.8627 22.827 48.8627C19.7958 48.8627 17.3398 46.4074 17.3398 43.3763C17.3398 40.3452 19.7958 37.8892 22.827 37.8892C23.1264 37.8892 23.4204 37.9136 23.7056 37.9598C26.3185 38.3801 28.3141 40.6446 28.3141 43.3763Z" fill="#F6CAAE"/>
<path d="M28.3144 43.3765C28.3144 46.1075 26.3188 48.3727 23.7059 48.793C23.2313 47.0669 22.978 45.2506 22.978 43.3765C22.978 41.5017 23.2313 39.6853 23.7059 37.96C26.3188 38.3803 28.3144 40.6448 28.3144 43.3765Z" fill="#EAB599"/>
<path d="M24.7882 43.376C24.7882 44.4591 23.9102 45.337 22.8272 45.337C21.7442 45.337 20.8662 44.4591 20.8662 43.376C20.8662 42.293 21.7442 41.415 22.8272 41.415C23.9102 41.415 24.7882 42.293 24.7882 43.376Z" fill="#EAB599"/>
<path d="M60.6836 43.3763C60.6836 46.1073 62.6785 48.3725 65.2914 48.7928C65.5773 48.839 65.8706 48.8627 66.1707 48.8627C69.2019 48.8627 71.6572 46.4074 71.6572 43.3763C71.6572 40.3452 69.2019 37.8892 66.1707 37.8892C65.8706 37.8892 65.5773 37.9136 65.2914 37.9598C62.6785 38.3801 60.6836 40.6446 60.6836 43.3763Z" fill="#F6CAAE"/>
<path d="M60.6836 43.3765C60.6836 46.1075 62.6785 48.3727 65.2914 48.793C65.766 47.0669 66.02 45.2506 66.02 43.3765C66.02 41.5017 65.7667 39.6853 65.2914 37.96C62.6785 38.3803 60.6836 40.6448 60.6836 43.3765Z" fill="#EAB599"/>
<path d="M64.9137 32.6863V40.4604C64.9137 50.6191 57.4921 59.0471 47.7747 60.6108C47.7421 60.6163 47.7074 60.6217 47.6749 60.6271C46.6414 60.7921 45.5808 60.8743 44.4977 60.8743C33.224 60.8743 24.0845 51.7341 24.0845 40.4604V32.6863C24.0845 30.3125 24.4892 28.031 25.2374 25.9118C28.0296 17.9666 35.5999 12.271 44.4977 12.271H44.4998C45.5808 12.271 46.6427 12.3545 47.6782 12.5182C57.4432 14.0439 64.9137 22.4929 64.9137 32.6863Z" fill="#EAB599"/>
<path d="M68.132 43.376C68.132 44.4591 67.254 45.337 66.171 45.337C65.0879 45.337 64.21 44.4591 64.21 43.376C64.21 42.293 65.0879 41.415 66.171 41.415C67.254 41.415 68.132 42.293 68.132 43.376Z" fill="#EAB599"/>
<path d="M64.9137 32.6867V40.4607C64.9137 50.6195 57.4921 59.0475 47.7747 60.6112C47.7421 60.6167 47.7074 60.6221 47.6748 60.6275C37.9099 59.1018 30.4414 50.6521 30.4414 40.4607V32.6867C30.4414 22.4933 37.9119 14.0443 47.6782 12.5186C57.4432 14.0443 64.9137 22.4933 64.9137 32.6867Z" fill="#F6CAAE"/>
<path d="M40.1516 39.2717C40.1516 40.551 39.1147 41.5871 37.8355 41.5871C36.5569 41.5871 35.52 40.551 35.52 39.2717C35.52 37.9924 36.5569 36.9556 37.8355 36.9556C39.1147 36.9556 40.1516 37.9924 40.1516 39.2717Z" fill="#3D4159"/>
<path d="M53.4787 39.2717C53.4787 40.551 52.4419 41.5871 51.1626 41.5871C49.884 41.5871 48.8472 40.551 48.8472 39.2717C48.8472 37.9924 49.884 36.9556 51.1626 36.9556C52.4419 36.9556 53.4787 37.9924 53.4787 39.2717Z" fill="#3D4159"/>
<path d="M39.6789 38.8626C39.6789 39.4106 39.2348 39.8547 38.6869 39.8547C38.1389 39.8547 37.6948 39.4106 37.6948 38.8626C37.6948 38.3147 38.1389 37.8706 38.6869 37.8706C39.2348 37.8706 39.6789 38.3147 39.6789 38.8626Z" fill="white"/>
<path d="M53.12 38.8626C53.12 39.4106 52.6753 39.8547 52.1273 39.8547C51.5793 39.8547 51.1353 39.4106 51.1353 38.8626C51.1353 38.3147 51.5793 37.8706 52.1273 37.8706C52.6753 37.8706 53.12 38.3147 53.12 38.8626Z" fill="white"/>
<path d="M46.815 44.1946H42.1834C41.6314 44.1946 41.1846 43.7472 41.1846 43.1951C41.1846 42.6438 41.6314 42.1963 42.1834 42.1963H46.815C47.367 42.1963 47.8138 42.6438 47.8138 43.1951C47.8138 43.7472 47.367 44.1946 46.815 44.1946Z" fill="#EAB599"/>
<path d="M44.4996 50.5145C42.7898 50.5145 41.0807 50.0861 39.5224 49.2298C39.0824 48.9881 38.9221 48.4361 39.1639 47.9961C39.4056 47.5567 39.9576 47.3965 40.397 47.6375C42.9657 49.0499 46.0328 49.0499 48.6015 47.6375C49.0408 47.3965 49.5929 47.5567 49.8346 47.9961C50.0763 48.4361 49.9161 48.9881 49.4761 49.2298C47.9184 50.0861 46.2087 50.5145 44.4996 50.5145Z" fill="#EAB599"/>
<path d="M64.9137 25.6316V33.5951H61.1139V27.359L33.6871 22.2623L27.8842 21.1833V33.5951H24.0845V25.6316C24.0845 16.5538 31.4423 9.19531 40.5187 9.19531H48.4795C48.6954 9.19531 48.9113 9.19939 49.1279 9.21025C57.9022 9.54772 64.9137 16.7697 64.9137 25.6316Z" fill="#2A2F4F"/>
<path d="M64.9141 25.6313V33.5948H61.1143V27.3587L33.6875 22.262C35.199 15.004 41.4962 9.50397 49.1283 9.20996C57.9026 9.54743 64.9141 16.7694 64.9141 25.6313Z" fill="#3D4159"/>
<path d="M39.7318 66.688L37.9046 69.0639L32.9152 70.3954L29.969 71.1797L27.6698 69.0605C27.606 69 27.5408 68.9423 27.479 68.8805C20.9985 62.8318 17.9361 58.0767 15.1134 49.6725C15.0842 49.591 15.0571 49.5075 15.0299 49.424L14.0508 46.454L15.9873 44.0964L19.2636 40.1059L22.1793 39.4248L22.6315 40.5744L23.9047 43.8133L25.7482 48.5033L23.3485 50.6938L21.7284 52.172C22.4713 54.5533 26.0823 60.162 27.9421 61.8255L29.9581 60.9632L32.9444 59.6805L36.4515 63.3044L38.8729 65.8032L38.8749 65.8019L39.7318 66.688Z" fill="#66BAED"/>
<path d="M32.945 59.6816L29.958 60.9636L37.9052 69.0636L39.7318 66.6891L32.945 59.6816Z" fill="#F2F0EC"/>
<path d="M25.7488 48.5033L23.3458 50.6917L19.2622 40.1038L22.1799 39.4248L25.7488 48.5033Z" fill="#F2F0EC"/>
<path d="M32.9152 70.3957L29.969 71.1799L27.6698 69.0607C27.606 69.0003 27.5408 68.9426 27.479 68.8808C20.9985 62.8321 17.9361 58.0769 15.1134 49.6728C15.0842 49.5913 15.0571 49.5078 15.0299 49.4242L14.0508 46.4542L15.9873 44.0967C15.9873 44.0967 16.6046 60.186 32.9138 70.3936C32.9138 70.3936 32.9152 70.3936 32.9152 70.3957Z" fill="#2BA1CF"/>
<path d="M27.4311 59.8191L24.6695 62.58C23.9335 63.316 22.9693 63.6847 22.0051 63.6834C21.3919 63.6847 20.7781 63.536 20.2233 63.2379C19.9062 63.0668 19.6081 62.8489 19.3399 62.5807C17.8678 61.1085 17.8678 58.7225 19.3399 57.2504L22.1008 54.4888C23.5729 53.0174 25.959 53.0174 27.4311 54.4888C27.6993 54.7577 27.9179 55.0551 28.0884 55.3729C28.8557 56.7995 28.6343 58.6152 27.4311 59.8191Z" fill="#EAB599"/>
<path d="M27.4308 59.8195L24.6693 62.5804C23.9332 63.3164 22.969 63.6851 22.0048 63.6838C21.3917 63.6851 20.7778 63.5364 20.2231 63.2383C19.4565 61.8117 19.6772 59.9953 20.8804 58.7921L23.6419 56.0306C24.8452 54.8274 26.6615 54.606 28.0881 55.3733C28.8554 56.7999 28.6341 58.6156 27.4308 59.8195Z" fill="#F6CAAE"/>
<path d="M23.8593 83.9346C21.7598 82.8319 19.7581 81.5676 17.8711 80.1566C16.8865 79.4205 15.9345 78.6451 15.0172 77.8316C14.8576 72.2718 15.7784 66.6883 17.7767 61.3994C18.5739 61.7009 19.3731 62.0024 20.1702 62.3039C21.8922 62.9537 23.6142 63.6062 25.3376 64.256C22.9515 70.5716 22.4592 77.4045 23.8593 83.9346Z" fill="#2A2F4F"/>
<path d="M23.8593 83.9344C21.7598 82.8317 19.7581 81.5674 17.8711 80.1564C17.3734 74.1498 18.14 68.0652 20.1702 62.3037C21.8922 62.9535 23.6142 63.6061 25.3375 64.2559C22.9515 70.5714 22.4592 77.4044 23.8593 83.9344Z" fill="#3D4159"/>
<path d="M51.2461 2.95508H84.3671V27.8519H51.2461V2.95508Z" fill="#F2F0EC"/>
<path d="M68.0718 26.2956L64.5151 34.7426L80.0755 25.8516L68.0718 26.2956Z" fill="#F2F0EC"/>
<path d="M63.9466 15.4036C63.9466 16.6924 62.9016 17.7374 61.6128 17.7374C60.3233 17.7374 59.2783 16.6924 59.2783 15.4036C59.2783 14.1148 60.3233 13.0698 61.6128 13.0698C62.9016 13.0698 63.9466 14.1148 63.9466 15.4036Z" fill="#3D4159"/>
<path d="M70.1407 15.4036C70.1407 16.6924 69.0957 17.7374 67.8069 17.7374C66.5182 17.7374 65.4731 16.6924 65.4731 15.4036C65.4731 14.1148 66.5182 13.0698 67.8069 13.0698C69.0957 13.0698 70.1407 14.1148 70.1407 15.4036Z" fill="#3D4159"/>
<path d="M76.3352 15.4036C76.3352 16.6924 75.2902 17.7374 74.0008 17.7374C72.712 17.7374 71.667 16.6924 71.667 15.4036C71.667 14.1148 72.712 13.0698 74.0008 13.0698C75.2902 13.0698 76.3352 14.1148 76.3352 15.4036Z" fill="#3D4159"/>
</svg>
