<svg width="89" height="89" viewBox="0 0 89 89" fill="none" xmlns="http://www.w3.org/2000/svg">
<path d="M44.5 0C61.7525 0 76.7121 9.81781 84.0946 24.1725C80.9796 30.9464 82.252 36.4691 82.4207 43.3771C82.4311 43.7508 82.4363 44.1245 82.4363 44.5C82.4363 46.0975 88.9166 47.6741 88.7515 49.2281C86.3909 71.5807 67.4784 89 44.5 89C21.5356 89 2.63355 71.6033 0.25384 49.2698C0.0852263 47.7019 3.65357 46.5387 3.65357 44.9273C3.65357 44.2198 3.67095 43.5158 3.70398 42.8153C4.01513 36.1194 2.15535 29.3822 5.10886 23.7797C12.5626 9.63877 27.4058 0 44.5 0Z" fill="#009FE3" fill-opacity="0.3"/>
<path d="M71.3392 43.4009L75.5197 47.5815L79.0311 51.0928L82.2834 54.3452C83.0899 55.1517 83.495 56.2103 83.495 57.269C83.495 58.3276 83.0899 59.3862 82.2834 60.1927C80.6685 61.8059 78.0524 61.8059 76.4376 60.1927L73.6007 57.3559L70.3588 54.114L65.4916 49.2468C63.8785 47.6319 64.6086 45.7459 66.2234 44.131C67.8383 42.5179 69.7243 41.7861 71.3392 43.4009Z" fill="#F7CBB7"/>
<path d="M72.1524 52.4254L78.1815 58.4523C79.4932 59.764 81.4656 60.009 83.0245 59.1915C82.835 59.5518 82.588 59.8915 82.2852 60.1943C80.6709 61.8086 78.0539 61.8086 76.4395 60.1943L65.4915 49.2462C64.2971 48.052 68.9773 51.3033 72.1524 52.4254Z" fill="#F7AE9C"/>
<path d="M20.2133 64.3763C21.0609 65.2239 22.1699 65.6467 23.2788 65.6467C24.3897 65.6467 25.5005 65.2238 26.3461 64.3763C24.6529 66.0696 24.6529 68.8142 26.3461 70.5092C27.1918 71.3548 28.3027 71.7797 29.4135 71.7797C30.5225 71.7797 31.6314 71.355 32.479 70.5092L35.2985 67.6897C33.6052 69.3829 33.6052 72.1294 35.2985 73.8227C36.1441 74.6684 37.2551 75.093 38.3639 75.093C39.4729 75.093 40.5818 74.6684 41.4294 73.8246V73.8227H41.4313C51.2448 81.176 72.4534 56.3041 78.1768 49.2276L80.3351 39.3931L67.3218 24.1713L49.1979 23.3986L33.1748 33.4772L20.2133 58.2433C18.52 59.9368 18.52 62.6833 20.2133 64.3763Z" fill="#FFDDCE"/>
<path d="M75.5198 47.5818L79.0312 51.0932C77.6666 52.7445 75.7962 54.9452 73.6008 57.3562L70.3589 54.1143C72.1441 52.0197 73.8824 49.8086 75.5198 47.5818Z" fill="#F7AE9C"/>
<path d="M41.4316 73.8227C51.2451 81.176 72.4537 56.3041 78.1772 49.2276L75.8574 43.8712C67.5239 55.9565 55.4637 68.8123 48.3564 66.8962L41.4316 73.8227Z" fill="#FFCBBE"/>
<path d="M44.5124 20.7728C46.9005 21.7934 54.6222 25.6887 59.2826 34.9478C60.0233 36.4162 60.0344 38.084 59.43 39.5167H59.4281C59.0922 40.317 58.5624 41.0447 57.8591 41.6211L57.8535 41.6266C57.7826 41.6845 57.71 41.7405 57.6371 41.7927C56.6651 42.5128 55.5215 42.8653 54.3834 42.8653C52.9916 42.8653 51.611 42.3374 50.5552 41.3039C48.4041 39.1938 45.449 36.7125 42.671 35.7853L20.2125 58.2441C19.6508 58.8075 19.274 59.4866 19.0855 60.2068C18.9755 60.1472 15.0484 58.0146 11.5223 52.8785V52.8766C12.3059 51.2722 11.972 49.4308 11.3469 47.5241C10.3096 44.3544 8.46828 41.0075 9.63049 38.2799C11.0185 35.0226 20.162 33.3808 21.4232 30.0693C22.8392 28.8864 28.9119 24.0471 36.2681 21.7318C38.4434 21.0471 40.7325 20.5808 43.046 20.4987C43.5497 20.4799 44.0497 20.575 44.5124 20.7728Z" fill="#F7CBB7"/>
<path d="M11.5224 52.8774V52.8793C15.0492 58.0147 18.9756 60.1462 19.0853 60.2058C19.2737 59.487 19.6504 58.8067 20.2134 58.2435L33.8361 44.6207C29.0428 49.414 18.6721 51.4628 13.8769 47.9341C13.2349 47.4632 12.3682 47.3556 11.3477 47.5247C11.9722 49.4312 12.3065 51.2726 11.5224 52.8774Z" fill="#F7AE9C"/>
<path d="M19.4653 63.3745C19.6595 63.7338 19.9093 64.0722 20.213 64.3757C21.0606 65.2233 22.1696 65.6462 23.2784 65.6462C24.3894 65.6462 25.5001 65.2233 26.3458 64.3757L40.6715 50.0497C40.0443 48.9226 38.5129 48.7086 37.6008 49.6207L24.5967 62.6267C23.7511 63.4743 22.6403 63.897 21.5294 63.897C20.8184 63.8972 20.1073 63.7242 19.4653 63.3745Z" fill="#FFCBBE"/>
<path d="M34.4795 72.6902C34.6851 73.0996 34.9561 73.482 35.2963 73.8222C36.142 74.6679 37.2529 75.0925 38.3637 75.0925C39.4727 75.0925 40.5816 74.6679 41.4291 73.8222L53.0742 62.1752C51.6829 61.2892 49.8629 61.4887 48.6967 62.655L39.4784 71.8732C38.6328 72.7189 37.5218 73.1436 36.413 73.1436C35.7498 73.1437 35.0867 72.992 34.4795 72.6902Z" fill="#FFCBBE"/>
<path d="M25.6309 69.561C25.8193 69.9012 26.0595 70.2202 26.3477 70.5085C27.1953 71.3542 28.3043 71.7791 29.4132 71.7791C30.5241 71.7791 31.6349 71.3544 32.4806 70.5085L45.5808 57.4059C44.567 56.543 43.0603 56.6035 42.1188 57.545L33.6376 66.0267L30.82 68.8462C29.9724 69.6938 28.8634 70.1166 27.7526 70.1166C27.0204 70.1164 26.2883 69.932 25.6309 69.561Z" fill="#FFCBBE"/>
<path d="M59.4279 39.5171C59.0921 40.3174 58.5623 41.045 57.859 41.6215L57.8534 41.627C57.7825 41.6849 57.7098 41.7409 57.637 41.793C56.6649 42.5132 55.5213 42.8657 54.3833 42.8657C52.9914 42.8657 51.6109 42.3378 50.555 41.3042C48.4039 39.1941 45.4488 36.7129 42.6709 35.7857L44.6802 33.1626C44.68 33.1626 53.7022 42.7913 59.4279 39.5171Z" fill="#F7AE9C"/>
<path d="M65.3897 54.9912C63.7754 56.6055 63.7754 59.223 65.3897 60.8376C63.7754 59.2232 61.1579 59.2232 59.5433 60.8376C57.929 62.4519 57.929 65.0694 59.5433 66.6839L59.0644 66.205C57.4501 64.5907 54.8326 64.5907 53.2181 66.205C51.6037 67.8194 51.6037 70.4369 53.2181 72.0514L55.0328 73.8661C56.6472 75.4805 59.2647 75.4805 60.8792 73.8661C62.4936 72.2518 62.4936 69.6343 60.8792 68.02L61.3581 68.4989C62.9724 70.1132 65.59 70.1132 67.2045 68.4989C68.8188 66.8845 68.8188 64.267 67.2045 62.6525C68.8188 64.2668 71.4363 64.2668 73.0508 62.6525C74.6652 61.0382 74.6652 58.4207 73.0508 56.8061L71.2361 54.9914C69.6216 53.3767 67.004 53.3767 65.3897 54.9912Z" fill="#F7CBB7"/>
<path d="M54.2209 65.4665C53.4034 67.0252 53.6485 68.9978 54.96 70.3114L56.7762 72.1255C58.0877 73.4372 60.0603 73.6821 61.6192 72.8648C61.4297 73.2251 61.1827 73.5648 60.8799 73.8676C59.2656 75.482 56.6486 75.482 55.0342 73.8676L53.2181 72.0515C51.6037 70.4371 51.6037 67.8201 53.2181 66.2058C53.5209 65.903 53.8605 65.6558 54.2209 65.4665Z" fill="#F7AE9C"/>
<path d="M60.5461 60.0991C59.7286 61.6578 59.9737 63.6304 61.2852 64.944L63.1014 66.7581C64.4129 68.0698 66.3855 68.3147 67.9444 67.4974C67.7549 67.8577 67.5079 68.1974 67.2051 68.5002C65.5908 70.1145 62.9738 70.1145 61.3594 68.5002L59.5433 66.684C57.9289 65.0697 57.9289 62.4527 59.5433 60.8384C59.8459 60.5356 60.1857 60.2885 60.5461 60.0991Z" fill="#F7AE9C"/>
<path d="M66.3923 54.2526C65.5748 55.8114 65.8199 57.784 67.1314 59.0976L68.9476 60.9116C70.2591 62.2233 72.2317 62.4683 73.7906 61.6509C73.6011 62.0113 73.3541 62.3509 73.0513 62.6537C71.4369 64.2681 68.82 64.2681 67.2056 62.6537L65.3895 60.8376C63.7751 59.2232 63.7751 56.6063 65.3895 54.9919C65.6923 54.6891 66.0319 54.4419 66.3923 54.2526Z" fill="#F7AE9C"/>
<path d="M5.10881 23.7798L21.4226 30.0689L13.6994 47.8637L11.5231 52.8787L0.253789 49.27C0.0851758 47.7021 0 46.1115 0 44.5001C0 37.0186 1.84605 29.9681 5.10881 23.7798Z" fill="#B6E8D6"/>
<path d="M0.0504102 42.3881L13.6994 47.8637L11.5231 52.8787L0.253789 49.27C0.0851758 47.7021 0 46.1115 0 44.5002C0 43.7927 0.0173828 43.0887 0.0504102 42.3881Z" fill="#78D0B1"/>
<path d="M67.3218 24.1727H84.0945C87.2303 30.2654 88.9999 37.1768 88.9999 44.5001C88.9999 46.0976 88.9165 47.6742 88.7513 49.2283H78.1774L75.4222 42.8662L67.3218 24.1727Z" fill="#FFDDCE"/>
<path d="M88.9844 43.3772C88.9949 43.751 89.0001 44.1247 89.0001 44.5002C89.0001 46.0976 88.9166 47.6742 88.7515 49.2283H78.1775L75.8569 43.8709L88.9844 43.3772Z" fill="#FFCBBE"/>
</svg>
