<svg xmlns="http://www.w3.org/2000/svg" viewBox="0 0 206.51 97.43">
  <defs>
    <style>
      .cls-1, .cls-8 {
        fill: #46a356;
      }

      .cls-1 {
        opacity: 0.8;
      }

      .cls-2 {
        fill: #2f2d2c;
      }

      .cls-3 {
        opacity: 0.9;
      }

      .cls-4 {
        fill: #09c;
      }

      .cls-5 {
        fill: #333132;
      }

      .cls-6 {
        fill: #5da567;
      }

      .cls-7 {
        fill: #00abe9;
      }

      .cls-8 {
        fill-opacity: 0.6;
      }
    </style>
  </defs>
  <title>Fichier 1</title>
  <g id="Calque_2" data-name="Calque 2">
    <g id="Calque_1-2" data-name="Calque 1">
      <g>
        <g>
          <path class="cls-1" d="M94.93,64.32h1.14v4.89H94.93Z"/>
          <path class="cls-1" d="M99.61,65.24H98v-.92h4.27v.92h-1.57v4H99.61Z"/>
          <path class="cls-1" d="M105.07,68.59a1.67,1.67,0,0,1-.19.7l-.4,1h-.69l.31-1.11a.6.6,0,0,1-.38-.59.68.68,0,1,1,1.35,0Z"/>
          <path class="cls-1" d="M110.6,64.32h2.22a2.46,2.46,0,1,1,0,4.89H110.6Zm2.16,4a1.52,1.52,0,1,0,0-3h-1v3Z"/>
          <path class="cls-1" d="M117.53,64.32a.63.63,0,0,1,.68-.61.62.62,0,0,1,.68.59.63.63,0,0,1-.68.63A.63.63,0,0,1,117.53,64.32Zm.13,1.13h1.09v3.76h-1.09Z"/>
          <path class="cls-1" d="M125,65.45v3.14a1.85,1.85,0,0,1-2.12,2,3.1,3.1,0,0,1-1.84-.52l.43-.78a2.24,2.24,0,0,0,1.33.42c.77,0,1.11-.35,1.11-1v-.17a1.55,1.55,0,0,1-1.2.47,1.82,1.82,0,1,1,0-3.63,1.52,1.52,0,0,1,1.25.53v-.48Zm-1.08,1.76a1,1,0,1,0-1,.93A.91.91,0,0,0,123.94,67.21Z"/>
          <path class="cls-1" d="M127.26,64.32a.63.63,0,0,1,.68-.61.61.61,0,0,1,.68.59.68.68,0,0,1-1.36,0Zm.14,1.13h1.09v3.76H127.4Z"/>
          <path class="cls-1" d="M133.29,69a1.54,1.54,0,0,1-.88.24A1.24,1.24,0,0,1,131,67.92V66.37h-.58v-.83H131v-.92h1.09v.92H133v.83h-.94v1.54a.43.43,0,0,0,.47.49.74.74,0,0,0,.44-.14Z"/>
          <path class="cls-1" d="M138.61,67.07v2.14h-1v-.46a1.23,1.23,0,0,1-1.14.52c-.89,0-1.41-.49-1.41-1.14S135.5,67,136.65,67h.86c0-.46-.28-.74-.86-.74a1.89,1.89,0,0,0-1.09.35l-.39-.76a2.91,2.91,0,0,1,1.62-.45C137.94,65.4,138.61,65.93,138.61,67.07Zm-1.1,1v-.39h-.74c-.51,0-.68.19-.68.44s.23.46.62.46A.8.8,0,0,0,137.51,68Z"/>
          <path class="cls-1" d="M141,64h1.09v5.19H141Z"/>
          <path class="cls-1" d="M151.61,69.3l-.58-.55a2.63,2.63,0,0,1-1.64.55c-1.08,0-1.87-.56-1.87-1.34,0-.62.33-1,1.08-1.47a1.44,1.44,0,0,1-.51-1c0-.72.61-1.2,1.53-1.2s1.41.43,1.41,1.12c0,.5-.3.88-1,1.24l.89.83a3.08,3.08,0,0,0,.25-.76l.87.27a3.16,3.16,0,0,1-.45,1.11l.58.54Zm-1.23-1.14-1.18-1.11c-.45.26-.61.49-.61.79s.34.61.88.61A1.54,1.54,0,0,0,150.38,68.16Zm-1.29-2.72c0,.19.07.33.38.63.48-.26.63-.44.63-.67s-.17-.4-.48-.4S149.09,65.19,149.09,65.44Z"/>
          <path class="cls-1" d="M162.11,69.21V66.28l-1.44,2.42h-.51l-1.43-2.36v2.87h-1.07V64.32h.94l1.83,3,1.81-3h.93v4.89Z"/>
          <path class="cls-1" d="M169,67.07v2.14h-1v-.46a1.23,1.23,0,0,1-1.15.52c-.88,0-1.4-.49-1.4-1.14S165.85,67,167,67h.87c0-.46-.28-.74-.87-.74a1.86,1.86,0,0,0-1.08.35l-.39-.76a2.91,2.91,0,0,1,1.62-.45C168.29,65.4,169,65.93,169,67.07Zm-1.09,1v-.39h-.75c-.51,0-.67.19-.67.44s.23.46.62.46A.8.8,0,0,0,167.86,68Z"/>
          <path class="cls-1" d="M173.64,65.4v1h-.24a.93.93,0,0,0-1,1v1.77h-1.1V65.45h1V66A1.49,1.49,0,0,1,173.64,65.4Z"/>
          <path class="cls-1" d="M177.27,67.74l-.52.52v.95h-1.09V64h1.09V67l1.59-1.51h1.31l-1.57,1.6,1.71,2.16h-1.33Z"/>
          <path class="cls-1" d="M185.15,67.64H182.3a1,1,0,0,0,1.08.76,1.27,1.27,0,0,0,.94-.37l.58.63a2.2,2.2,0,0,1-3.7-1.33,1.91,1.91,0,0,1,2-1.93,1.87,1.87,0,0,1,2,1.95C185.17,67.43,185.15,67.55,185.15,67.64ZM182.29,67h1.85a.9.9,0,0,0-.92-.78A.88.88,0,0,0,182.29,67Z"/>
          <path class="cls-1" d="M189.69,69a1.58,1.58,0,0,1-.89.24,1.24,1.24,0,0,1-1.41-1.35V66.37h-.58v-.83h.58v-.92h1.09v.92h.94v.83h-.94v1.54a.44.44,0,0,0,.47.49.74.74,0,0,0,.44-.14Z"/>
          <path class="cls-1" d="M191.54,64.32a.63.63,0,0,1,.68-.61.61.61,0,0,1,.67.59.68.68,0,0,1-1.35,0Zm.13,1.13h1.09v3.76h-1.09Z"/>
          <path class="cls-1" d="M199,67.06v2.15H197.9v-2c0-.61-.28-.89-.77-.89s-.9.32-.9,1v1.86h-1.09V65.45h1v.44a1.67,1.67,0,0,1,1.25-.49A1.47,1.47,0,0,1,199,67.06Z"/>
          <path class="cls-1" d="M205.26,65.45v3.14a1.84,1.84,0,0,1-2.11,2,3.16,3.16,0,0,1-1.85-.52l.44-.78a2.24,2.24,0,0,0,1.33.42c.77,0,1.1-.35,1.1-1v-.17A1.52,1.52,0,0,1,203,69a1.82,1.82,0,1,1,0-3.63,1.52,1.52,0,0,1,1.25.53v-.48Zm-1.07,1.76a1,1,0,1,0-1,.93A.92.92,0,0,0,204.19,67.21Z"/>
        </g>
        <g>
          <path class="cls-2" d="M165.32,84.68a1.83,1.83,0,0,1-1.87,1.94,1.46,1.46,0,0,1-1.18-.49v.43h-1.05V81.37h1.1V83.2a1.45,1.45,0,0,1,1.13-.46A1.83,1.83,0,0,1,165.32,84.68Zm-1.1,0a1,1,0,1,0-1,1A.95.95,0,0,0,164.22,84.68Z"/>
          <path class="cls-2" d="M169.69,82.8l-1.71,4A1.55,1.55,0,0,1,166.42,88a1.62,1.62,0,0,1-1-.34l.39-.78a1,1,0,0,0,.62.24c.3,0,.47-.13.62-.47v0l-1.63-3.79h1.13l1,2.55,1.07-2.55Z"/>
        </g>
        <g class="cls-3">
          <path class="cls-4" d="M50.74,40.91c-4.84,0-8.57,2.93-9.46,7.15h4.25a5.55,5.55,0,0,1,10.44,0h4.26C59.33,43.83,55.57,40.91,50.74,40.91Zm5,11.8a5.57,5.57,0,0,1-9.92,0H41.43c1.13,3.88,4.72,6.52,9.31,6.52S59,56.6,60.07,52.71Z"/>
          <path class="cls-4" d="M81,41.21V58.93H77.67L68.84,48.17V58.93h-4V41.21h3.39L77,52V41.21Z"/>
          <path class="cls-4" d="M85.1,57.19l1.4-3.09a10.39,10.39,0,0,0,5.84,1.84c2.43,0,3.42-.81,3.42-1.89,0-3.32-10.3-1-10.3-7.62,0-3,2.43-5.52,7.46-5.52a11.9,11.9,0,0,1,6.16,1.57l-1.27,3.11A10.08,10.08,0,0,0,92.9,44.2c-2.43,0-3.37.91-3.37,2,0,3.26,10.3,1,10.3,7.51,0,3-2.45,5.5-7.51,5.5A12.69,12.69,0,0,1,85.1,57.19Z"/>
          <path class="cls-4" d="M103.75,51.14V41.21h4.1V51c0,3.37,1.47,4.76,4,4.76s4-1.39,4-4.76V41.21h4v9.93c0,5.21-3,8.1-8,8.1S103.75,56.35,103.75,51.14Z"/>
          <path class="cls-4" d="M125.09,41.21v9.71h4.11V41.21Zm4.11,14.38v0h-4.11v3.36h13V55.59Z"/>
          <path class="cls-4" d="M143.68,49.21v9.72h4.1V49.21Zm-5.67-8v3.34h15.43V41.21Z"/>
        </g>
        <g>
          <path class="cls-4" d="M159.7,41.21h4.12l-3.54,17.72h-4.12Z"/>
          <path class="cls-4" d="M185.51,41.21,182,58.93H178.6L172,47.85l-2.23,11.08h-4.05l3.54-17.72h3.4l6.6,11.12,2.2-11.12Z"/>
          <path class="cls-4" d="M201.25,49.79H205l-1.47,7.29a11.24,11.24,0,0,1-6.78,2.16c-5.36,0-8.76-3.12-8.76-7.7,0-6,4.43-10.63,11.14-10.63,3.39,0,5.87,1.09,7.39,3.09l-2.94,2.38a5.53,5.53,0,0,0-4.63-2,6.56,6.56,0,0,0-6.81,6.89c0,2.66,1.78,4.45,5.14,4.45a6.91,6.91,0,0,0,2.94-.63Z"/>
        </g>
        <path class="cls-4" d="M0,48.71C0,20.32,21.8,0,51.14,0,67.42,0,81,5.92,89.89,16.69L75.9,29.6c-6.33-7.26-14.27-11-23.69-11C34.58,18.57,22.07,31,22.07,48.71S34.58,78.86,52.21,78.86c9.42,0,17.36-3.77,23.69-11.17l14,12.91C81,91.5,67.42,97.43,51,97.43,21.8,97.43,0,77.11,0,48.71Z"/>
        <g>
          <path class="cls-5" d="M175.91,81.72h-2v2.77c0,.76.31,1.15.94,1.15a1.9,1.9,0,0,0,.91-.23v.85a2.49,2.49,0,0,1-1.18.26c-1,0-1.76-.55-1.76-2v-2.8h-1V80.9h1V79.17l1.09-.28v2h2Z"/>
          <path class="cls-5" d="M181.46,83.18a5.35,5.35,0,0,1,0,.58h-4.18a1.91,1.91,0,0,0,2,1.9,3.06,3.06,0,0,0,1.81-.57V86a3.31,3.31,0,0,1-1.9.53,2.85,2.85,0,0,1-3-3.13A2.67,2.67,0,0,1,179,80.6a2.43,2.43,0,0,1,2.5,2.58m-4.2-.16h3.28A1.48,1.48,0,0,0,179,81.43a1.6,1.6,0,0,0-1.7,1.59"/>
          <path class="cls-6" d="M187.54,85.13v1c0,.15-.39.42-.76.42a1.89,1.89,0,0,1-1.46-.73l-1.89-2.4h1.28l1.38,1.71a1,1,0,0,0,.9.39.71.71,0,0,0,.55-.36"/>
          <polygon class="cls-7" points="187.39 80.54 184.72 83.15 183.43 83.15 186.02 80.54 187.39 80.54"/>
          <rect class="cls-7" x="182.21" y="83.38" width="1.08" height="3.05"/>
          <rect class="cls-7" x="182.21" y="78.04" width="1.08" height="5.11"/>
          <path class="cls-5" d="M191.85,81v.85a3.28,3.28,0,0,0-1.65-.43c-.83,0-1.27.32-1.27.87,0,1.09,3.29.3,3.29,2.28,0,1-.77,1.94-2.51,1.94a3.65,3.65,0,0,1-1.92-.45v-.92a3.56,3.56,0,0,0,2,.55c1,0,1.4-.46,1.4-1,0-1.11-3.28-.26-3.28-2.29,0-.9.8-1.78,2.29-1.78a3.07,3.07,0,0,1,1.66.41"/>
          <path class="cls-5" d="M193.6,79.81a.8.8,0,0,1,0-1.59.8.8,0,0,1,0,1.59m.53,6.62h-1.08V80.9h1.08Z"/>
          <path class="cls-5" d="M199.64,82.51V86a4.61,4.61,0,0,1-2.2.56c-1.59,0-2.38-.78-2.38-1.72,0-1.35,1.43-1.89,3.5-1.75v-.53c0-.6-.22-1.06-1.11-1.06a3.81,3.81,0,0,0-2,.52v-.86a3.83,3.83,0,0,1,2.09-.52,1.8,1.8,0,0,1,2.06,1.91m-1.08,2.94V83.79c-1.83-.16-2.44.36-2.44,1s.44,1,1.29,1a3,3,0,0,0,1.15-.26"/>
          <path class="cls-5" d="M201.53,84.82c0,.6.19.82.66.82a1.19,1.19,0,0,0,.65-.18v.85a1.66,1.66,0,0,1-.9.21c-.86,0-1.5-.42-1.5-1.69V78.27h1.09Z"/>
        </g>
        <g>
          <path class="cls-8" d="M154.92,22.91h1.44v1.44h-1.44Z"/>
          <path class="cls-8" d="M154.2,19.87h1.44v1.45H154.2Z"/>
          <path class="cls-8" d="M152.16,17.13H153V18h-.83Z"/>
          <path class="cls-8" d="M150.26,12h.83v.84h-.83Z"/>
          <path class="cls-8" d="M150.67,20.17h.84V21h-.84Z"/>
          <path class="cls-8" d="M146,9.92h.83v.84H146Z"/>
          <path class="cls-8" d="M149.65,15.53h1.44V17h-1.44Z"/>
          <path class="cls-8" d="M154.05,14.1h1.43v1.44h-1.43Z"/>
          <path class="cls-8" d="M151.13,13.38h1.44v1.44h-1.44Z"/>
          <path class="cls-8" d="M147.85,11h1.44v1.44h-1.44Z"/>
          <path class="cls-8" d="M154.05,17.13h1.43v1.44h-1.43Z"/>
          <path class="cls-8" d="M158,20.54h-.77c-.05,1.7-.23,3.4-.18,5.13h1.43v1.44h-1.33c.57,5.52,4.42,4.48,4.42,4.48,1.32-2.36-.26-8.95-.26-8.95,3.06,8.45,1.6,13.3.7,14.46a.63.63,0,1,0,1.06.67,23.41,23.41,0,0,0,1.79-6.63c10.34-9-3.43-21.72-10.12-19.36.12.15.21.28.31.42h.83V13h-.29c.15.27.3.54.44.81h1v1h.72v-1h1.44v1.44H158v1h-1.1l.06.26h-1.11v1.44h1.33c0,.26.05.53.06.78H156v1.45h1.43v-1H158v1.4Zm.72-2.69h-1.44V16.42h1.44Zm1.61.58v1.44h-1.43V18.43Zm-.3,2.15v.84h-.83v-.84Zm.63-3.44h-1.44V15.7h1.44Zm-1.77,8.1V23.8h1.44v1.44H158.9Zm-1.43-3.77h1.44v1.44h-1.44Z"/>
        </g>
      </g>
    </g>
  </g>
</svg>
