<svg width="48" height="48" viewBox="0 0 48 48" fill="none" xmlns="http://www.w3.org/2000/svg">
<path d="M36.1875 4.96875C36.1875 5.48657 35.7678 5.90625 35.25 5.90625C34.7322 5.90625 34.3125 5.48657 34.3125 4.96875C34.3125 4.45093 34.7322 4.03125 35.25 4.03125C35.7678 4.03125 36.1875 4.45093 36.1875 4.96875Z" fill="#2F2D2C" fill-opacity="0.5"/>
<path d="M38.3135 17.3024C38.2088 17.3071 38.1077 17.3097 38.0055 17.3111L38.5742 15.7621C38.846 15.0223 38.1348 14.295 37.3888 14.5525C36.0752 15.0051 35.4981 15.2908 34.5503 15.5369C32.0722 13.3096 28.4141 13.2129 25.8012 14.8191C23.6566 16.1374 22.4895 18.4153 22.881 21.0978C18.6824 20.5221 15.2484 18.5738 12.4121 15.167C12.2133 14.9282 11.9093 14.8033 11.6002 14.8337C11.2912 14.8641 11.0172 15.0454 10.8685 15.3182C9.68971 17.4814 9.61647 20.076 10.8301 22.2792C10.354 22.2949 9.95998 22.6673 9.92592 23.15C9.81166 24.7661 10.5437 27.0571 12.3598 28.63C12.0532 28.8724 11.9269 29.2826 12.051 29.6587C12.6795 31.5659 13.9843 33.0406 15.678 33.861C13.9857 34.5787 12.6201 35.0369 10.3749 35.7751C10.02 35.8916 9.76845 36.208 9.73439 36.5801C9.70033 36.9521 9.89039 37.3092 10.2182 37.4883C10.9418 37.8838 13.4979 39.2047 16.0248 39.6009C21.6157 40.478 27.8772 39.7727 32.1004 35.9692C35.6848 32.7414 36.8552 28.1301 36.6102 23.3313C36.5736 22.6066 36.7717 21.9159 37.1687 21.3863C37.343 21.1538 36.4923 22.288 39.1122 18.7917C39.5747 18.1586 39.0994 17.2698 38.3135 17.3024ZM35.668 20.2624C35.0095 21.1413 34.6788 22.2645 34.7374 23.4265C34.9857 28.2755 33.6762 32.027 30.8457 34.5762C27.5692 37.5267 22.2727 38.6829 16.3152 37.7483C15.229 37.578 14.1062 37.1968 13.1768 36.8159C15.0584 36.1684 16.5126 35.5909 18.8615 34.4791C19.7334 34.0664 19.4829 32.7576 18.5202 32.6964C16.7861 32.5854 15.3425 31.7454 14.4552 30.3812C14.9262 30.3538 15.3806 30.2772 15.8329 30.1512C16.7583 29.8931 16.7393 28.5663 15.8043 28.3374C13.558 27.7873 12.3451 26.1185 11.9419 24.6189C12.2935 24.7141 12.7014 24.7811 13.3646 24.8467C14.2981 24.9382 14.7705 23.7495 14.0333 23.1746C12.1942 21.7397 11.457 19.585 11.9972 17.5137C15.2378 20.8795 19.2592 22.7556 23.9727 23.0958C24.626 23.1409 25.1786 22.5626 24.8992 21.5848C24.0269 18.5013 25.9257 16.9431 26.7826 16.4165C28.5573 15.3256 31.3808 15.167 33.3411 16.9713C33.7655 17.3657 34.343 17.5206 34.8843 17.3866C35.3527 17.2701 35.7398 17.1471 36.117 17.0138L35.7855 17.9158C35.5856 18.4603 35.9236 19.0543 36.4934 19.1609C36.2752 19.452 36.0045 19.8131 35.668 20.2624Z" fill="#2F2D2C" fill-opacity="0.5"/>
<path d="M43.3125 0H4.6875C2.10278 0 0 2.10278 0 4.6875V43.3125C0 45.8972 2.10278 48 4.6875 48H43.3125C45.8972 48 48 45.8972 48 43.3125V4.6875C48 2.10278 45.8972 0 43.3125 0ZM46.125 43.3125C46.125 44.8634 44.8634 46.125 43.3125 46.125H4.6875C3.1366 46.125 1.875 44.8634 1.875 43.3125V4.6875C1.875 3.1366 3.1366 1.875 4.6875 1.875H43.3125C44.8634 1.875 46.125 3.1366 46.125 4.6875V43.3125Z" fill="#2F2D2C" fill-opacity="0.5"/>
<path d="M12.75 5.90625H31.5C32.0178 5.90625 32.4375 5.48657 32.4375 4.96875C32.4375 4.45093 32.0178 4.03125 31.5 4.03125H12.75C12.2322 4.03125 11.8125 4.45093 11.8125 4.96875C11.8125 5.48657 12.2322 5.90625 12.75 5.90625Z" fill="#2F2D2C" fill-opacity="0.5"/>
</svg>
