<svg id="lkdin" width="48" height="48" viewBox="0 0 48 48" fill="none" xmlns="http://www.w3.org/2000/svg">
<path d="M35.8125 46.125H2.8125C2.29541 46.125 1.875 45.7046 1.875 45.1875V2.8125C1.875 2.29541 2.29541 1.875 2.8125 1.875H4.6875C5.20532 1.875 5.625 1.45532 5.625 0.9375C5.625 0.419678 5.20532 0 4.6875 0H2.8125C1.2616 0 0 1.2616 0 2.8125V45.1875C0 46.7384 1.2616 48 2.8125 48H35.8125C36.33 48 36.75 47.5803 36.75 47.0625C36.75 46.5447 36.3303 46.125 35.8125 46.125Z" fill="#2D2F2C" fill-opacity="0.5"/>
<path d="M45.1875 0H12.1875C11.6697 0 11.25 0.419678 11.25 0.9375C11.25 1.45532 11.6697 1.875 12.1875 1.875H45.1875C45.7046 1.875 46.125 2.29541 46.125 2.8125V45.1875C46.125 45.7046 45.7046 46.125 45.1875 46.125H43.3125C42.7947 46.125 42.375 46.5447 42.375 47.0625C42.375 47.5803 42.7947 48 43.3125 48H45.1875C46.7384 48 48 46.738 48 45.1875V2.8125C48 1.2616 46.7384 0 45.1875 0Z" fill="#2D2F2C" fill-opacity="0.5"/>
<path d="M11.5547 16.5703C14.2815 16.5703 16.5 14.3518 16.5 11.625C16.5 8.89783 14.2815 6.67969 11.5547 6.67969C8.82751 6.67969 6.60938 8.89819 6.60938 11.625C6.60938 14.3518 8.82751 16.5703 11.5547 16.5703ZM11.5547 8.55469C13.2477 8.55469 14.625 9.93201 14.625 11.625C14.625 13.318 13.2477 14.6953 11.5547 14.6953C9.86169 14.6953 8.48438 13.318 8.48438 11.625C8.48438 9.93201 9.86169 8.55469 11.5547 8.55469Z" fill="#2D2F2C" fill-opacity="0.5"/>
<path d="M32.2734 17.0391C30.2014 17.0391 28.2015 17.7598 26.6016 19.0334V18.4453C26.6016 17.9275 26.1815 17.5078 25.6641 17.5078H19.125C18.6072 17.5078 18.1875 17.9275 18.1875 18.4453V40.3828C18.1875 40.9006 18.6072 41.3203 19.125 41.3203H26.0156C26.5331 41.3203 26.9531 40.9006 26.9531 40.3828V27.7207C26.9531 26.157 28.2253 24.8848 29.7891 24.8848C31.3528 24.8848 32.625 26.157 32.625 27.7207V40.3828C32.625 40.9006 33.0447 41.3203 33.5625 41.3203H40.4531C40.9706 41.3203 41.3906 40.9006 41.3906 40.3828V26.1562C41.3906 21.1289 37.3004 17.0391 32.2734 17.0391ZM39.5156 39.4453H34.5V27.7207C34.5 25.1232 32.3866 23.0098 29.7891 23.0098C27.1912 23.0098 25.0781 25.1232 25.0781 27.7207V39.4453H20.0625V19.3828H24.7266V21.3527C24.7266 21.7584 24.9873 22.118 25.3733 22.244C25.7585 22.3696 26.1819 22.233 26.421 21.9053C27.7885 20.0325 29.9762 18.9141 32.2734 18.9141C36.2666 18.9141 39.5156 22.1627 39.5156 26.1562V39.4453Z" fill="#2D2F2C" fill-opacity="0.5"/>
<path d="M8.10938 17.5078C7.59155 17.5078 7.17188 17.9275 7.17188 18.4453V40.3828C7.17188 40.9006 7.59155 41.3203 8.10938 41.3203H15C15.5175 41.3203 15.9375 40.9006 15.9375 40.3828V18.4453C15.9375 17.9275 15.5175 17.5078 15 17.5078H8.10938ZM14.0625 39.4453H9.04688V19.3828H14.0625V39.4453Z" fill="#2D2F2C" fill-opacity="0.5"/>
<path d="M8.43787 1.875C8.95532 1.875 9.37537 1.45532 9.37537 0.9375C9.37537 0.419678 8.95532 0 8.43787 0H8.43713C7.91931 0 7.5 0.419678 7.5 0.9375C7.5 1.45532 7.92004 1.875 8.43787 1.875Z" fill="#2D2F2C" fill-opacity="0.5"/>
<path d="M39.5629 46.125H39.5621C39.0443 46.125 38.625 46.5447 38.625 47.0625C38.625 47.5803 39.045 48 39.5629 48C40.0807 48 40.5004 47.5803 40.5004 47.0625C40.5004 46.5447 40.0807 46.125 39.5629 46.125Z" fill="#2D2F2C" fill-opacity="0.5"/>
</svg>
