<svg xmlns="http://www.w3.org/2000/svg" viewBox="0 0 225.98 106.61">
  <defs>
    <style>
      .cls-1, .cls-2 {
        fill: #fff;
      }

      .cls-1 {
        opacity: 0.8;
      }

      .cls-3 {
        opacity: 0.9;
      }
    </style>
  </defs>
  <title>InWhite-logo-not-action</title>
  <g id="Calque_2" data-name="Calque 2">
    <g id="Calque_1-2" data-name="Calque 1">
      <g>
        <g>
          <path class="cls-1" d="M103.88,70.38h1.24v5.36h-1.24Z"/>
          <path class="cls-1" d="M109,71.39h-1.72v-1H112v1h-1.71v4.35H109Z"/>
          <path class="cls-1" d="M115,75.05a1.75,1.75,0,0,1-.21.77l-.43,1.1h-.76l.34-1.22a.68.68,0,0,1-.42-.65.71.71,0,0,1,.75-.73A.69.69,0,0,1,115,75.05Z"/>
          <path class="cls-1" d="M121,70.38h2.44a2.69,2.69,0,1,1,0,5.36H121Zm2.37,4.34a1.66,1.66,0,1,0,0-3.32h-1.13v3.32Z"/>
          <path class="cls-1" d="M128.61,70.38a.68.68,0,0,1,.74-.66.67.67,0,0,1,.75.64.75.75,0,0,1-1.49,0Zm.15,1.24H130v4.12h-1.19Z"/>
          <path class="cls-1" d="M136.8,71.62v3.43a2,2,0,0,1-2.31,2.24,3.42,3.42,0,0,1-2-.57l.47-.86a2.45,2.45,0,0,0,1.46.47c.84,0,1.21-.38,1.21-1.13V75a1.72,1.72,0,0,1-1.3.51,2,2,0,1,1,0-4,1.64,1.64,0,0,1,1.36.59v-.53Zm-1.18,1.93a1.08,1.08,0,1,0-1.08,1A1,1,0,0,0,135.62,73.55Z"/>
          <path class="cls-1" d="M139.26,70.38a.68.68,0,0,1,.74-.66.67.67,0,0,1,.75.64.75.75,0,0,1-1.49,0Zm.15,1.24h1.19v4.12h-1.19Z"/>
          <path class="cls-1" d="M145.86,75.54a1.67,1.67,0,0,1-1,.26,1.36,1.36,0,0,1-1.54-1.48V72.63h-.64v-.92h.64v-1h1.19v1h1v.92h-1v1.68a.48.48,0,0,0,.52.54.81.81,0,0,0,.48-.15Z"/>
          <path class="cls-1" d="M151.67,73.39v2.35h-1.11v-.51a1.38,1.38,0,0,1-1.26.57c-1,0-1.54-.53-1.54-1.25s.51-1.23,1.77-1.23h.95c0-.51-.31-.81-.95-.81a2,2,0,0,0-1.19.38l-.43-.83a3.21,3.21,0,0,1,1.78-.5C150.94,71.56,151.67,72.14,151.67,73.39Zm-1.19,1V74h-.82c-.56,0-.74.2-.74.48s.26.5.68.5A.89.89,0,0,0,150.48,74.44Z"/>
          <path class="cls-1" d="M154.25,70.06h1.19v5.68h-1.19Z"/>
          <path class="cls-1" d="M165.91,75.83l-.65-.6a2.82,2.82,0,0,1-1.79.6c-1.18,0-2-.61-2-1.47,0-.67.36-1.14,1.18-1.6a1.59,1.59,0,0,1-.55-1.13c0-.78.65-1.32,1.67-1.32s1.53.48,1.53,1.24c0,.55-.32,1-1,1.35l1,.91a3.24,3.24,0,0,0,.27-.83l1,.3a3.54,3.54,0,0,1-.49,1.21l.63.58Zm-1.35-1.25-1.29-1.21c-.49.29-.67.53-.67.86s.37.67,1,.67A1.7,1.7,0,0,0,164.56,74.58Zm-1.42-3c0,.21.09.36.42.69.52-.29.69-.49.69-.73s-.18-.45-.52-.45S163.14,71.33,163.14,71.61Z"/>
          <path class="cls-1" d="M177.39,75.74V72.53l-1.57,2.64h-.56l-1.57-2.58v3.15h-1.16V70.38h1l2,3.33,2-3.33h1l0,5.36Z"/>
          <path class="cls-1" d="M184.88,73.39v2.35h-1.12v-.51a1.35,1.35,0,0,1-1.25.57c-1,0-1.54-.53-1.54-1.25s.51-1.23,1.77-1.23h.95c0-.51-.31-.81-.95-.81a2,2,0,0,0-1.19.38l-.43-.83a3.21,3.21,0,0,1,1.78-.5C184.15,71.56,184.88,72.14,184.88,73.39Zm-1.19,1V74h-.82c-.56,0-.74.2-.74.48s.26.5.68.5A.9.9,0,0,0,183.69,74.44Z"/>
          <path class="cls-1" d="M190,71.56v1.1h-.27a1,1,0,0,0-1.09,1.15v1.94h-1.2V71.62h1.15v.55A1.65,1.65,0,0,1,190,71.56Z"/>
          <path class="cls-1" d="M194,74.12l-.58.57v1h-1.19V70.06h1.19v3.22l1.75-1.66h1.42l-1.71,1.75,1.87,2.37h-1.45Z"/>
          <path class="cls-1" d="M202.6,74h-3.12a1.11,1.11,0,0,0,1.18.82,1.44,1.44,0,0,0,1-.39l.63.69a2.16,2.16,0,0,1-1.7.66,2.14,2.14,0,0,1-2.35-2.12,2.1,2.1,0,0,1,2.2-2.12,2,2,0,0,1,2.14,2.14C202.62,73.79,202.61,73.92,202.6,74Zm-3.13-.7h2a1,1,0,0,0-1-.86A1,1,0,0,0,199.47,73.32Z"/>
          <path class="cls-1" d="M207.57,75.54a1.67,1.67,0,0,1-1,.26,1.36,1.36,0,0,1-1.54-1.48V72.63h-.64v-.92h.64v-1h1.19v1h1v.92h-1v1.68a.48.48,0,0,0,.52.54.81.81,0,0,0,.48-.15Z"/>
          <path class="cls-1" d="M209.59,70.38a.68.68,0,0,1,.75-.66.67.67,0,0,1,.74.64.75.75,0,0,1-1.49,0Zm.15,1.24h1.19v4.12h-1.19Z"/>
          <path class="cls-1" d="M217.75,73.38v2.36h-1.2V73.57c0-.67-.3-1-.83-1s-1,.36-1,1.11v2h-1.19V71.62h1.14v.48a1.8,1.8,0,0,1,1.36-.54A1.62,1.62,0,0,1,217.75,73.38Z"/>
          <path class="cls-1" d="M224.62,71.62v3.43a2,2,0,0,1-2.32,2.24,3.42,3.42,0,0,1-2-.57l.48-.86a2.4,2.4,0,0,0,1.45.47c.84,0,1.21-.38,1.21-1.13V75a1.69,1.69,0,0,1-1.3.51,2,2,0,1,1,0-4,1.64,1.64,0,0,1,1.36.59v-.53Zm-1.18,1.93a1.09,1.09,0,1,0-1.08,1A1,1,0,0,0,223.44,73.55Z"/>
        </g>
        <g>
          <path class="cls-2" d="M180.91,92.66a2,2,0,0,1-2,2.12,1.61,1.61,0,0,1-1.3-.53v.47h-1.14V89h1.2v2a1.58,1.58,0,0,1,1.24-.5A2,2,0,0,1,180.91,92.66Zm-1.21,0a1.05,1.05,0,1,0-1,1.14A1,1,0,0,0,179.7,92.66Z"/>
          <path class="cls-2" d="M185.68,90.6,183.82,95a1.7,1.7,0,0,1-1.71,1.3,1.78,1.78,0,0,1-1.14-.38l.43-.85a1.09,1.09,0,0,0,.68.26c.33,0,.51-.14.67-.51l0,0L181,90.6h1.23l1.16,2.8,1.16-2.8Z"/>
        </g>
        <g class="cls-3">
          <path class="cls-2" d="M55.53,44.77c-5.3,0-9.38,3.21-10.36,7.82h4.66a6.07,6.07,0,0,1,11.42,0h4.66C64.92,48,60.81,44.77,55.53,44.77ZM61,57.68a6.1,6.1,0,0,1-10.86,0H45.34c1.23,4.24,5.16,7.14,10.19,7.14s9-2.88,10.2-7.14Z"/>
          <path class="cls-2" d="M88.68,45.1V64.49H85L75.33,52.72V64.49H70.9V45.1h3.71l9.64,11.77V45.1Z"/>
          <path class="cls-2" d="M93.13,62.58l1.52-3.38a11.4,11.4,0,0,0,6.4,2c2.66,0,3.74-.89,3.74-2.08,0-3.63-11.27-1.13-11.27-8.34,0-3.29,2.65-6,8.16-6a13.08,13.08,0,0,1,6.74,1.71L107,49.89a11,11,0,0,0-5.37-1.52c-2.66,0-3.69,1-3.69,2.21,0,3.58,11.28,1.11,11.28,8.23,0,3.24-2.69,6-8.23,6A13.8,13.8,0,0,1,93.13,62.58Z"/>
          <path class="cls-2" d="M113.53,56V45.1H118V55.79c0,3.68,1.6,5.21,4.32,5.21s4.32-1.53,4.32-5.21V45.1h4.43V56c0,5.7-3.27,8.86-8.78,8.86S113.53,61.66,113.53,56Z"/>
          <path class="cls-2" d="M136.89,45.09V55.72h4.48V45.09Zm4.48,15.74v0h-4.48v3.68H151.1V60.83Z"/>
          <path class="cls-2" d="M157.22,53.85V64.49h4.49V53.85ZM151,45.09v3.66h16.89V45.09Z"/>
        </g>
        <g>
          <path class="cls-2" d="M174.75,45.1h4.52l-3.88,19.39h-4.51Z"/>
          <path class="cls-2" d="M203,45.1l-3.88,19.39h-3.68l-7.23-12.13-2.44,12.13h-4.43l3.88-19.39h3.71l7.23,12.16,2.41-12.16Z"/>
          <path class="cls-2" d="M220.22,54.49h4.1l-1.61,8a12.35,12.35,0,0,1-7.42,2.36c-5.87,0-9.59-3.41-9.59-8.42,0-6.62,4.85-11.63,12.19-11.63,3.71,0,6.43,1.19,8.09,3.38l-3.21,2.6a6.08,6.08,0,0,0-5.07-2.16,7.18,7.18,0,0,0-7.45,7.53c0,2.91,1.94,4.88,5.62,4.88a7.54,7.54,0,0,0,3.21-.69Z"/>
        </g>
        <path class="cls-2" d="M0,53.3C0,22.23,23.86,0,56,0c17.81,0,32.69,6.48,42.4,18.26L83.05,32.39c-6.92-7.95-15.61-12.07-25.91-12.07-19.3,0-33,13.55-33,33s13.69,33,33,33c10.3,0,19-4.12,25.91-12.22L98.36,88.2c-9.71,11.93-24.59,18.41-42.55,18.41C23.86,106.61,0,84.38,0,53.3Z"/>
        <g>
          <path class="cls-2" d="M192.5,89.42h-2.19v3c0,.83.35,1.25,1,1.25a2,2,0,0,0,1-.25v.93a2.73,2.73,0,0,1-1.29.29c-1.07,0-1.92-.61-1.92-2.2V89.42H188v-.89h1.14v-1.9l1.18-.3v2.2h2.19Z"/>
          <path class="cls-2" d="M198.57,91a4.4,4.4,0,0,1,0,.64H194a2.1,2.1,0,0,0,2.21,2.08,3.37,3.37,0,0,0,2-.62v1a3.56,3.56,0,0,1-2.08.59,3.13,3.13,0,0,1-3.27-3.43,2.93,2.93,0,0,1,3-3.06A2.66,2.66,0,0,1,198.57,91m-4.6-.17h3.59a1.62,1.62,0,0,0-1.73-1.75A1.77,1.77,0,0,0,194,90.85"/>
          <path class="cls-2" d="M205.21,93.16v1c0,.16-.42.46-.82.46a2.08,2.08,0,0,1-1.6-.81l-2.07-2.62h1.4l1.51,1.88a1.1,1.1,0,0,0,1,.42.75.75,0,0,0,.59-.39"/>
          <polygon class="cls-2" points="205.05 88.13 202.13 90.99 200.72 90.99 203.56 88.13 205.05 88.13"/>
          <rect class="cls-2" x="199.38" y="91.24" width="1.18" height="3.33"/>
          <rect class="cls-2" x="199.38" y="85.4" width="1.18" height="5.59"/>
          <path class="cls-2" d="M209.94,88.64v.93a3.69,3.69,0,0,0-1.8-.47c-.91,0-1.4.36-1.4,1,0,1.19,3.6.33,3.6,2.49,0,1.11-.84,2.13-2.74,2.13a4.08,4.08,0,0,1-2.11-.49v-1a3.92,3.92,0,0,0,2.19.61c1.06,0,1.52-.5,1.52-1.12,0-1.22-3.58-.29-3.58-2.51,0-1,.87-2,2.5-2a3.43,3.43,0,0,1,1.82.45"/>
          <path class="cls-2" d="M211.85,87.33a.87.87,0,0,1,0-1.73.87.87,0,0,1,0,1.73m.59,7.25h-1.19v-6h1.19Z"/>
          <path class="cls-2" d="M218.46,90.29v3.77a5,5,0,0,1-2.4.62c-1.75,0-2.61-.85-2.61-1.89,0-1.47,1.56-2.07,3.83-1.91V90.3c0-.66-.24-1.16-1.21-1.16a4.13,4.13,0,0,0-2.15.57v-.94a4.16,4.16,0,0,1,2.29-.58,2,2,0,0,1,2.25,2.1m-1.18,3.22V91.69c-2-.17-2.67.39-2.67,1s.48,1.05,1.41,1.05a3.4,3.4,0,0,0,1.26-.28"/>
          <path class="cls-2" d="M220.53,92.82c0,.65.2.89.72.89a1.35,1.35,0,0,0,.71-.19v.93a1.85,1.85,0,0,1-1,.23c-.94,0-1.63-.46-1.63-1.85V85.65h1.19Z"/>
        </g>
        <g>
          <path class="cls-2" d="M169.53,25.07h1.57v1.58h-1.57Z"/>
          <path class="cls-2" d="M168.74,21.75h1.57v1.57h-1.57Z"/>
          <path class="cls-2" d="M166.5,18.74h.91v.91h-.91Z"/>
          <path class="cls-2" d="M164.42,13.12h.91V14h-.91Z"/>
          <path class="cls-2" d="M164.88,22.07h.91V23h-.91Z"/>
          <path class="cls-2" d="M159.8,10.86h.91v.91h-.91Z"/>
          <path class="cls-2" d="M163.76,17h1.57v1.58h-1.57Z"/>
          <path class="cls-2" d="M168.57,15.43h1.57V17h-1.57Z"/>
          <path class="cls-2" d="M165.38,14.64H167v1.58h-1.58Z"/>
          <path class="cls-2" d="M161.79,12h1.57v1.57h-1.57Z"/>
          <path class="cls-2" d="M168.57,18.74h1.57v1.58h-1.57Z"/>
          <path class="cls-2" d="M172.91,22.47h-.85c-.05,1.86-.24,3.73-.19,5.62h1.56v1.58H172c.62,6,4.83,4.9,4.83,4.9,1.45-2.58-.28-9.79-.28-9.79,3.34,9.24,1.74,14.55.76,15.82a.7.7,0,1,0,1.17.74,25.52,25.52,0,0,0,1.95-7.26c11.32-9.86-3.75-23.78-11.07-21.19.13.16.22.31.33.46v0h.92v.92h-.32c.17.29.33.59.48.88h1.13v1h.78v-1h1.58v1.58h-1.33v1.05H171.7c0,.09,0,.18.07.28h-1.22v1.58H172c0,.28.05.58.06.86h-1.32v1.58h1.57V21h.59v1.52Zm.79-2.94h-1.58V18h1.58Zm1.76.64v1.58h-1.57V20.17Zm-.34,2.35v.92h-.91v-.92Zm.69-3.77h-1.57V17.18h1.57Zm-1.93,8.87V26.05h1.58v1.57h-1.58Zm-1.56-4.12h1.57v1.57h-1.57Z"/>
        </g>
      </g>
    </g>
  </g>
</svg>
