<svg width="30" height="30" viewBox="0 0 30 30" fill="none" xmlns="http://www.w3.org/2000/svg">
<g clip-path="url(#clip0)">
<path d="M30 19.6084V23.0241C30 24.1841 26.9066 25.1508 23.1042 25.1508C19.3019 25.1508 16.2729 24.2164 16.2729 23.0563V22.6697L16.2085 19.9629H16.2407C16.7562 20.9618 19.5919 21.7352 23.0075 21.7352C26.4231 21.7352 29.9355 20.7685 29.9355 19.6085H30V19.6084Z" fill="#E2A63B"/>
<path d="M22.9109 6.91211V10.2955H22.8464C22.8464 11.4878 19.6564 12.4223 15.8862 12.4223C14.4362 12.4545 12.9539 12.2934 11.5361 11.9389L11.4716 12.0034C10.7627 11.4234 9.95714 10.9723 9.08713 10.6822V10.6178L8.99048 7.04101C9.21603 8.13659 12.2128 9.0066 15.854 9.0066C19.4953 9.0066 22.8464 8.07213 22.8464 6.91211H22.9109Z" fill="#F4B844"/>
<path d="M22.9108 6.97665C22.9108 8.13668 19.7208 9.07115 15.9184 9.07115C12.1161 9.07115 9.24823 8.20113 9.02267 7.10556C9.02267 7.07336 8.99048 7.00891 8.99048 6.97665C8.99048 5.81663 12.0839 4.8499 15.9185 4.8499C19.753 4.81771 22.9108 5.78437 22.9108 6.97665Z" fill="#FEDB41"/>
<path d="M16.2407 19.963L16.2085 19.2541L16.144 16.354C16.3696 17.4496 19.3664 18.3196 23.0076 18.3196C26.6488 18.3196 29.8711 17.3852 29.9678 16.2573H30V19.6086H29.9355C29.9355 20.7686 26.8099 21.7353 23.0075 21.7353C19.2053 21.7352 16.7563 20.9619 16.2407 19.963Z" fill="#F4B844"/>
<path d="M11.6328 22.1218C12.5028 21.3162 13.1796 20.285 13.5339 19.1572H13.695C14.404 19.2217 15.1129 19.2539 15.8863 19.2539H16.2085V19.9628L16.2729 22.6696H15.9184C14.5006 22.7018 13.115 22.5407 11.7295 22.2185L11.6328 22.1218Z" fill="#E2A63B"/>
<path d="M16.2408 16.0961V16.2572L16.3053 19.254H15.983C15.1774 19.254 14.4362 19.2218 13.7274 19.1573H13.5663C13.7918 18.4807 13.8885 17.7717 13.8885 17.0628C13.8885 16.5795 13.824 16.1284 13.7274 15.6772H13.8885C14.5652 15.7417 15.2419 15.7739 15.983 15.7739L16.273 15.935C16.2408 15.9994 16.2408 16.0638 16.2408 16.0961Z" fill="#F4B844"/>
<path d="M11.5362 11.9393C12.954 12.2937 14.4363 12.4548 15.8863 12.4226C19.6564 12.4226 22.8466 11.4882 22.8466 10.2959H22.911V14.0982C19.3987 14.0982 16.5308 14.9361 16.1764 15.9994L15.8863 15.8383C15.1774 15.8383 14.5008 15.8061 13.8563 15.7416H13.6952C13.4052 14.2593 12.6318 12.9382 11.4718 11.9715L11.5362 11.9393Z" fill="#E2A63B"/>
<path d="M13.7596 15.7418C13.4374 14.2595 12.6317 12.9062 11.4717 11.9073C10.7628 11.2628 9.92496 10.8117 9.02275 10.5539C8.37829 10.3283 7.66937 10.2317 6.99271 10.2317C3.15812 10.1994 0.0324471 13.2606 0.000251644 17.0951C-0.0319438 20.9296 3.02922 24.0553 6.86381 24.0875C8.6361 24.0875 10.3117 23.443 11.6328 22.2508C12.5351 21.4129 13.2117 20.3496 13.5662 19.1896C13.7917 18.5129 13.8884 17.8362 13.8884 17.1273C13.8885 16.6763 13.7596 16.1929 13.7596 15.7418Z" fill="#FEDB41"/>
<path d="M29.9678 16.1926V16.257C29.8711 17.3849 26.7455 18.3193 23.0076 18.3193C19.2697 18.3193 16.3696 17.4493 16.144 16.3537V16.1926C16.144 16.1282 16.144 16.0637 16.1762 15.9993C16.5307 14.9359 19.3986 14.0981 22.9109 14.0981H23.0075C26.8099 14.0981 29.9678 15.0326 29.9678 16.1926Z" fill="#FEDB41"/>
<path d="M10.0538 20.4139C9.92494 20.0917 9.57048 19.8983 9.21603 20.0272C8.056 20.4783 6.76708 20.1883 5.89706 19.3183C5.73596 19.1894 5.60705 19.0283 5.51041 18.8349H8.60382C8.95828 18.8349 9.24828 18.5449 9.24828 18.1905C9.24828 17.836 8.95828 17.546 8.60382 17.546H5.02704C4.99485 17.3205 4.99485 17.1271 4.99485 16.9016H8.92608C9.28054 16.9016 9.57055 16.6115 9.57055 16.2571C9.57055 15.9026 9.28054 15.6126 8.92608 15.6126H5.3815C5.5426 15.3548 5.7037 15.1293 5.89706 14.936C6.76708 14.0659 8.056 13.8081 9.21603 14.227C9.53823 14.356 9.92494 14.1949 10.0538 13.8726C10.1828 13.5504 10.0217 13.1637 9.66719 13.0348C8.05607 12.4226 6.21932 12.8092 4.99485 14.0337C4.54374 14.4848 4.18928 15.0326 3.96373 15.6126H3.12591C2.77145 15.6126 2.48145 15.9026 2.48145 16.2571C2.48145 16.6115 2.77145 16.9016 3.12591 16.9016H3.70592C3.70592 17.1271 3.70592 17.3205 3.73812 17.546H3.12591C2.77145 17.546 2.48145 17.836 2.48145 18.1905C2.48145 18.5449 2.77145 18.8349 3.12591 18.8349H4.06038C4.25374 19.3828 4.57594 19.8661 4.99485 20.2528C6.21932 21.4773 8.05607 21.8639 9.66719 21.2517C9.98939 21.1228 10.1828 20.7683 10.0538 20.4139Z" fill="#E2A63B"/>
</g>
<defs>
<clipPath id="clip0">
<rect width="30" height="30" fill="white"/>
</clipPath>
</defs>
</svg>
